<svg width="100" height="40" viewBox="0 0 100 40" fill="none" xmlns="http://www.w3.org/2000/svg">
<path d="M92.6833 26.0382H89.9618C89.3983 26.0382 88.9287 25.6653 88.9287 25.1992C88.9287 24.6398 89.3983 24.3602 89.9618 24.3602H94.9352L96.0622 21.845H89.9618C87.4281 21.845 86.0194 23.3347 86.0194 25.2924C86.0194 27.2502 87.4281 28.5534 89.5861 28.5534H92.3076C92.8711 28.5534 93.3407 28.9263 93.3407 29.3924C93.3407 29.8585 92.965 30.2314 92.3076 30.2314H86.3012V32.7466H92.3076C94.8413 32.7466 96.25 31.2569 96.25 29.2059C96.25 27.155 94.9352 26.0382 92.6833 26.0382ZM81.7034 26.0382H78.9819C78.4184 26.0382 77.9488 25.6653 77.9488 25.1992C77.9488 24.6398 78.4184 24.3602 78.9819 24.3602H83.9553L85.0823 21.845H78.9819C76.4482 21.845 75.0415 23.3347 75.0415 25.2924C75.0415 27.2502 76.4482 28.5534 78.6082 28.5534H81.3297C81.8931 28.5534 82.3627 28.9263 82.3627 29.3924C82.3627 29.8585 81.9871 30.2314 81.3297 30.2314H75.3232V32.7466H81.3297C83.8633 32.7466 85.2701 31.2569 85.2701 29.2059C85.364 27.1569 84.0512 26.0382 81.7034 26.0382ZM64.3433 32.8378H73.7286V30.3227H67.3465V28.5534H73.6347V26.0382H67.3465V24.2689H73.7286V21.7537H64.3433V32.8398V32.8378ZM58.5246 26.5043H55.4275V24.2689H58.5246C59.3698 24.2689 59.8394 24.8282 59.8394 25.3876C59.8394 26.0402 59.3698 26.5063 58.5246 26.5063M62.8407 25.2944C62.8407 23.1521 61.3381 21.7537 58.8983 21.7537H52.4223V32.8398H55.4255V29.0214H56.5524L59.9313 32.8398H63.4981L59.8374 28.835C61.7137 28.3689 62.8407 27.0656 62.8407 25.2944ZM46.7934 26.6927H43.6023V24.2708H46.7934C47.6386 24.2708 48.1082 24.8302 48.1082 25.4828C48.1082 26.1353 47.7325 26.6947 46.7934 26.6947M47.169 21.7576H40.693V32.8437H43.6962V29.2098H47.169C49.7027 29.2098 51.2053 27.6269 51.2053 25.4828C51.1114 23.2473 49.6108 21.7557 47.169 21.7557M40.1315 21.7557H36.285L33.4696 25.1099L30.5602 21.7557H26.6179L31.5913 27.2521L26.524 32.8417H30.3705L33.3737 29.3011L36.3769 32.8417H40.3173L35.25 27.1589L40.1295 21.7557H40.1315ZM16.7649 32.8417H26.1483V30.3266H19.6723V28.5572H25.9605V26.0421H19.6723V24.2728H26.1483V21.7576H16.7649V32.8437V32.8417ZM91.5563 14.2996L86.9585 7.59323H83.204V18.586H86.2072V11.598L90.899 18.5841H94.4657V7.59323H91.5563V14.3016V14.2996ZM74.2882 13.9267L75.8828 10.1996L77.4773 13.9267H74.2862H74.2882ZM73.9125 7.59128L69.033 18.6773H72.318L73.2571 16.4419H78.4184L79.3575 18.6773H82.7364L77.763 7.59323H73.9145L73.9125 7.59128ZM64.1535 13.1809V12.9945C64.1535 11.3183 65.0926 10.1996 66.9689 10.1996H70.2539V7.5H66.6872C63.0265 7.5 61.1502 9.82869 61.1502 12.9032V13.0896C61.1502 16.537 63.3083 18.4928 66.5932 18.4928H67.6263L68.8452 15.9777H67.0628C65.2804 16.0709 64.1535 15.0454 64.1535 13.1829M56.6464 18.586H59.6496V7.59323H56.6464V18.586ZM50.8277 12.2506H47.7306V10.0151H50.8277C51.6729 10.0151 52.1425 10.5745 52.1425 11.1338C52.1425 11.7864 51.6729 12.2525 50.8277 12.2525M55.1438 11.1338C55.1438 8.9916 53.6412 7.59323 51.2034 7.59323H44.7273V18.6793H47.7306V14.7677H48.8575L52.2364 18.588H55.897L52.1444 14.5832C54.0207 14.2103 55.1477 12.8138 55.1477 11.1358M33.3757 18.588H42.7591V16.0728H36.3769V14.3035H42.5712V11.7884H36.3769V10.019H42.7591V7.59323H33.3757V18.586V18.588ZM23.8983 14.488L21.3627 7.59323H16.7649V18.586H19.6742V10.6677L22.5836 18.586H25.2111L28.1205 10.6677V18.586H31.1237V7.59323H26.432L23.8983 14.4861V14.488ZM7.75714 13.9287L9.35169 10.2016L10.9462 13.9287H7.75518H7.75714ZM7.37953 7.59323L2.5 18.586H5.78498L6.7241 16.3506H11.8854L12.8245 18.586H16.2034L11.228 7.59323H7.37953Z" fill="#006FCF"/>
</svg>
