<svg width="144" height="48" viewBox="0 0 144 48" fill="none" xmlns="http://www.w3.org/2000/svg">
<rect x="0.6" y="0.6" width="142.8" height="46.8" rx="6.6" fill="black"/>
<rect x="0.6" y="0.6" width="142.8" height="46.8" rx="6.6" stroke="#A6A6A6" stroke-width="1.2"/>
<path d="M29.645 24.9156C29.6596 23.8117 29.9599 22.7293 30.5181 21.7692C31.0762 20.8091 31.8741 20.0024 32.8374 19.4242C32.2254 18.571 31.4181 17.8688 30.4796 17.3734C29.541 16.8781 28.4971 16.6032 27.4307 16.5706C25.1559 16.3375 22.9505 17.8995 21.7913 17.8995C20.6097 17.8995 18.8249 16.5937 16.903 16.6323C15.6599 16.6716 14.4483 17.0245 13.3864 17.6567C12.3245 18.289 11.4485 19.179 10.8437 20.2401C8.22383 24.6686 10.178 31.177 12.6877 34.7566C13.9433 36.5095 15.4108 38.4675 17.331 38.398C19.21 38.3219 19.9117 37.2282 22.1798 37.2282C24.4269 37.2282 25.0853 38.398 27.0445 38.3539C29.0607 38.3219 30.331 36.5932 31.5427 34.8238C32.4448 33.5748 33.1391 32.1944 33.5996 30.7338C32.4282 30.2501 31.4286 29.4404 30.7253 28.4058C30.0221 27.3711 29.6464 26.1573 29.645 24.9156Z" fill="white"/>
<path d="M25.9449 14.2162C27.0442 12.9277 27.5858 11.2716 27.4547 9.59961C25.7751 9.77183 24.2237 10.5555 23.1095 11.7945C22.5647 12.3998 22.1475 13.104 21.8816 13.8668C21.6158 14.6296 21.5065 15.4361 21.5601 16.2402C22.4002 16.2486 23.2313 16.0708 23.9908 15.7203C24.7503 15.3697 25.4184 14.8554 25.9449 14.2162Z" fill="white"/>
<path d="M44.1494 12.3018H46.6332C48.7795 12.3018 49.8236 13.5779 49.8236 15.893C49.8236 18.208 48.7689 19.5 46.6332 19.5H44.1494V12.3018ZM45.3465 13.309V18.4928H46.5014C47.9252 18.4928 48.5949 17.6332 48.5949 15.9088C48.5949 14.1738 47.9199 13.309 46.5014 13.309H45.3465ZM53.61 13.8311C55.0654 13.8311 56.0832 14.775 56.0832 16.3412V17.0637C56.0832 18.6826 55.0654 19.5949 53.61 19.5949C52.1334 19.5949 51.1262 18.6932 51.1262 17.0689V16.3465C51.1262 14.8225 52.1492 13.8311 53.61 13.8311ZM53.6152 14.775C52.782 14.775 52.3074 15.4711 52.3074 16.4045V17.0268C52.3074 17.9602 52.7504 18.651 53.6152 18.651C54.4695 18.651 54.9072 17.9654 54.9072 17.0268V16.4045C54.9072 15.4711 54.4484 14.775 53.6152 14.775ZM64.6789 13.926L63.2129 19.5H62.0211L60.8557 15.3867H60.824L59.6797 19.5H58.4826L56.9533 13.926H58.2137L59.1102 18.1764H59.1629L60.2861 13.926H61.3883L62.5432 18.1764H62.5959L63.5082 13.926H64.6789ZM65.8391 19.5V13.926H66.9887V14.9279H67.0467C67.1891 14.4902 67.5951 13.8416 68.7236 13.8416C69.8469 13.8416 70.601 14.4639 70.601 15.7348V19.5H69.4303V16.0775C69.4303 15.2285 68.9873 14.8383 68.3281 14.8383C67.4633 14.8383 67.0098 15.5027 67.0098 16.4045V19.5H65.8391ZM72.3729 19.5V11.9221H73.5436V19.5H72.3729ZM77.5619 13.8311C79.0174 13.8311 80.0352 14.775 80.0352 16.3412V17.0637C80.0352 18.6826 79.0174 19.5949 77.5619 19.5949C76.0854 19.5949 75.0781 18.6932 75.0781 17.0689V16.3465C75.0781 14.8225 76.1012 13.8311 77.5619 13.8311ZM77.5672 14.775C76.734 14.775 76.2594 15.4711 76.2594 16.4045V17.0268C76.2594 17.9602 76.7023 18.651 77.5672 18.651C78.4215 18.651 78.8592 17.9654 78.8592 17.0268V16.4045C78.8592 15.4711 78.4004 14.775 77.5672 14.775ZM83.0674 19.5844C81.9863 19.5844 81.2428 18.9199 81.2428 17.8811C81.2428 16.8949 81.9283 16.2305 83.215 16.2305H84.623V15.7084C84.623 15.0703 84.217 14.7697 83.5736 14.7697C82.9408 14.7697 82.6561 15.0334 82.5664 15.4025H81.4537C81.5223 14.4691 82.2236 13.8416 83.6105 13.8416C84.8023 13.8416 85.7885 14.3373 85.7885 15.7242V19.5H84.6758V18.7775H84.623C84.3752 19.2047 83.89 19.5844 83.0674 19.5844ZM83.4313 18.6773C84.0957 18.6773 84.623 18.2238 84.623 17.6174V17.0162H83.3996C82.7193 17.0162 82.4188 17.359 82.4188 17.823C82.4188 18.4031 82.9039 18.6773 83.4313 18.6773ZM89.3955 13.8521C90.1813 13.8521 90.7824 14.2002 90.9986 14.7645H91.0566V11.9221H92.2273V19.5H91.0883V18.6088H91.0303C90.8615 19.173 90.1918 19.5738 89.3797 19.5738C88.0982 19.5738 87.265 18.6615 87.265 17.1902V16.2357C87.265 14.7645 88.1141 13.8521 89.3955 13.8521ZM89.7225 14.8119C88.942 14.8119 88.4568 15.392 88.4568 16.4045V17.0162C88.4568 18.034 88.9473 18.6141 89.7488 18.6141C90.5398 18.6141 91.0566 18.0393 91.0566 17.09V16.2463C91.0566 15.3867 90.4924 14.8119 89.7225 14.8119ZM98.6557 13.8311C100.111 13.8311 101.129 14.775 101.129 16.3412V17.0637C101.129 18.6826 100.111 19.5949 98.6557 19.5949C97.1791 19.5949 96.1719 18.6932 96.1719 17.0689V16.3465C96.1719 14.8225 97.1949 13.8311 98.6557 13.8311ZM98.6609 14.775C97.8277 14.775 97.3531 15.4711 97.3531 16.4045V17.0268C97.3531 17.9602 97.7961 18.651 98.6609 18.651C99.5152 18.651 99.9529 17.9654 99.9529 17.0268V16.4045C99.9529 15.4711 99.4941 14.775 98.6609 14.775ZM102.637 19.5V13.926H103.787V14.9279H103.845C103.987 14.4902 104.393 13.8416 105.522 13.8416C106.645 13.8416 107.399 14.4639 107.399 15.7348V19.5H106.228V16.0775C106.228 15.2285 105.785 14.8383 105.126 14.8383C104.261 14.8383 103.808 15.5027 103.808 16.4045V19.5H102.637ZM111.929 13.9629V12.5707H113.073V13.9629H114.323V14.8805H113.073V17.8389C113.073 18.4453 113.3 18.6141 113.928 18.6141C114.086 18.6141 114.297 18.6035 114.386 18.593V19.4895C114.291 19.5053 113.901 19.5369 113.638 19.5369C112.282 19.5369 111.913 19.0518 111.913 17.9338V14.8805H111.064V13.9629H111.929ZM115.8 19.5V11.9221H116.965V14.9279H117.023C117.144 14.5324 117.598 13.8416 118.716 13.8416C119.802 13.8416 120.577 14.4691 120.577 15.74V19.5H119.412V16.0828C119.412 15.2338 118.943 14.8383 118.278 14.8383C117.44 14.8383 116.965 15.4975 116.965 16.4045V19.5H115.8ZM124.506 19.5949C122.987 19.5949 122.043 18.6615 122.043 17.09V16.3359C122.043 14.7539 123.077 13.8311 124.438 13.8311C125.835 13.8311 126.821 14.8014 126.821 16.3359V16.9898H123.204V17.2641C123.204 18.0656 123.678 18.6562 124.501 18.6562C125.113 18.6562 125.534 18.3662 125.613 18.0182H126.758C126.689 18.6615 126.009 19.5949 124.506 19.5949ZM123.204 16.2252H125.677V16.1514C125.677 15.3129 125.186 14.7539 124.443 14.7539C123.699 14.7539 123.204 15.3129 123.204 16.1514V16.2252Z" fill="white"/>
<path d="M45.8475 37.5H43.4111L48.3682 23.1035H51.0471L55.9936 37.5H53.4623L52.1861 33.5133H47.1342L45.8475 37.5ZM49.7182 25.5926H49.6232L47.6721 31.6781H51.6482L49.7182 25.5926ZM62.7174 37.6582C61.2725 37.6582 60.1756 36.9727 59.585 35.9496H59.5006V41.202H57.1592V26.352H59.4374V27.9867H59.5217C60.1335 26.9215 61.2725 26.2043 62.7702 26.2043C65.2698 26.2043 67.0522 28.0922 67.0522 31.425V32.4164C67.0522 35.7281 65.2909 37.6582 62.7174 37.6582ZM62.1796 35.7281C63.6667 35.7281 64.6792 34.5363 64.6792 32.2898V31.5094C64.6792 29.3473 63.7299 28.1133 62.1374 28.1133C60.5026 28.1133 59.4796 29.4422 59.4796 31.4988V32.2898C59.4796 34.3992 60.5131 35.7281 62.1796 35.7281ZM74.6199 37.6582C73.1749 37.6582 72.0781 36.9727 71.4874 35.9496H71.4031V41.202H69.0616V26.352H71.3398V27.9867H71.4241C72.0359 26.9215 73.1749 26.2043 74.6726 26.2043C77.1722 26.2043 78.9546 28.0922 78.9546 31.425V32.4164C78.9546 35.7281 77.1933 37.6582 74.6199 37.6582ZM74.082 35.7281C75.5691 35.7281 76.5816 34.5363 76.5816 32.2898V31.5094C76.5816 29.3473 75.6324 28.1133 74.0398 28.1133C72.405 28.1133 71.382 29.4422 71.382 31.4988V32.2898C71.382 34.3992 72.4156 35.7281 74.082 35.7281ZM83.8067 33.5027H86.1481C86.2536 34.7473 87.3504 35.8125 89.386 35.8125C91.2528 35.8125 92.3602 34.9371 92.3602 33.5766C92.3602 32.4797 91.6219 31.8891 90.0821 31.5199L87.7196 30.9293C85.8633 30.4969 84.1969 29.3895 84.1969 27.048C84.1969 24.2953 86.6016 22.7871 89.3965 22.7871C92.1915 22.7871 94.5223 24.2953 94.5751 26.9848H92.2758C92.1704 25.7613 91.2317 24.7488 89.3649 24.7488C87.7196 24.7488 86.6016 25.5293 86.6016 26.8687C86.6016 27.8074 87.2555 28.4824 88.595 28.7883L90.9469 29.3684C93.109 29.8957 94.7544 30.9187 94.7544 33.3656C94.7544 36.1922 92.4657 37.7848 89.2067 37.7848C85.1989 37.7848 83.8594 35.4434 83.8067 33.5027ZM97.6075 26.352V23.6414H99.9068V26.352H102.079V28.2293H99.9068V34.1777C99.9068 35.3906 100.36 35.7281 101.615 35.7281C101.816 35.7281 102.006 35.7281 102.143 35.707V37.5C101.953 37.5316 101.51 37.5738 101.035 37.5738C98.3247 37.5738 97.5759 36.6035 97.5759 34.3676V28.2293H96.0361V26.352H97.6075ZM108.403 26.1621C111.609 26.1621 113.349 28.4191 113.349 31.4566V32.3531C113.349 35.4961 111.619 37.6898 108.403 37.6898C105.186 37.6898 103.435 35.4961 103.435 32.3531V31.4566C103.435 28.4297 105.196 26.1621 108.403 26.1621ZM108.403 28.0395C106.662 28.0395 105.797 29.4633 105.797 31.4883V32.3426C105.797 34.3359 106.652 35.802 108.403 35.802C110.153 35.802 110.997 34.3465 110.997 32.3426V31.4883C110.997 29.4527 110.143 28.0395 108.403 28.0395ZM115.327 37.5V26.352H117.668V27.818H117.753C118.037 27.1219 118.871 26.1937 120.421 26.1937C120.727 26.1937 120.99 26.2148 121.212 26.257V28.3242C121.012 28.2715 120.6 28.2398 120.21 28.2398C118.333 28.2398 117.7 29.4 117.7 30.8977V37.5H115.327ZM126.892 37.6898C123.907 37.6898 122.009 35.7176 122.009 32.4164V31.2879C122.009 28.1766 123.865 26.1621 126.797 26.1621C129.771 26.1621 131.564 28.2504 131.564 31.3934V32.4586H124.318V32.7223C124.318 34.5996 125.331 35.8441 126.923 35.8441C128.115 35.8441 128.927 35.2535 129.212 34.2937H131.437C131.1 36.0973 129.644 37.6898 126.892 37.6898ZM124.318 30.8238H129.275V30.8027C129.275 29.2207 128.294 27.9762 126.807 27.9762C125.299 27.9762 124.318 29.2207 124.318 30.8027V30.8238Z" fill="white"/>
</svg>
