<svg width="100" height="40" viewBox="0 0 100 40" fill="none" xmlns="http://www.w3.org/2000/svg">
<path fill-rule="evenodd" clip-rule="evenodd" d="M29.3759 9.72329C28.6141 10.631 27.3952 11.3469 26.1763 11.2446C26.024 10.0173 26.6207 8.71334 27.319 7.90794C28.0808 6.9747 29.414 6.30993 30.4932 6.25879C30.6202 7.5372 30.125 8.79005 29.3759 9.72329ZM30.4813 11.4871C29.4075 11.4249 28.4277 11.8123 27.6363 12.1252C27.127 12.3265 26.6957 12.4971 26.3676 12.4971C25.9994 12.4971 25.5503 12.3174 25.0461 12.1157C24.3854 11.8515 23.63 11.5493 22.8379 11.5638C21.0222 11.5894 19.3336 12.6249 18.4067 14.274C16.5022 17.5723 17.9115 22.4559 19.7526 25.1405C20.654 26.4701 21.7333 27.9275 23.1553 27.8763C23.7809 27.8526 24.2309 27.6603 24.6967 27.4613C25.2329 27.2322 25.7899 26.9942 26.6596 26.9942C27.4992 26.9942 28.0318 27.226 28.5431 27.4485C29.0293 27.6601 29.4962 27.8632 30.1893 27.8508C31.6621 27.8252 32.589 26.5212 33.4904 25.1917C34.4633 23.7647 34.8908 22.3721 34.9557 22.1607L34.9633 22.1363C34.9617 22.1347 34.9497 22.1292 34.9285 22.1194C34.6033 21.9695 32.1176 20.8237 32.0938 17.7513C32.0699 15.1725 34.0653 13.8659 34.3795 13.6602C34.3986 13.6477 34.4115 13.6392 34.4173 13.6348C33.1476 11.7428 31.1669 11.5382 30.4813 11.4871ZM40.6777 27.7107V7.78027H48.1053C51.9397 7.78027 54.6188 10.4394 54.6188 14.3257C54.6188 18.2121 51.889 20.8968 48.0038 20.8968H43.7503V27.7107H40.6777ZM43.75 10.3887H47.2924C49.9587 10.3887 51.4823 11.8205 51.4823 14.339C51.4823 16.8574 49.9587 18.302 47.2797 18.302H43.75V10.3887ZM64.7618 25.3205C63.9492 26.8802 62.159 27.8645 60.2291 27.8645C57.3723 27.8645 55.3789 26.1515 55.3789 23.5691C55.3789 21.0123 57.3088 19.5421 60.8766 19.3248L64.711 19.0946V17.9952C64.711 16.3716 63.6572 15.4895 61.7781 15.4895C60.2291 15.4895 59.0991 16.2949 58.8705 17.5222H56.1026C56.1915 14.9398 58.6039 13.0605 61.8669 13.0605C65.3839 13.0605 67.6694 14.9142 67.6694 17.7907V27.7111H64.8253V25.3205H64.7618ZM61.056 25.4988C59.4181 25.4988 58.377 24.7061 58.377 23.4917C58.377 22.2388 59.38 21.5101 61.2972 21.3951L64.7126 21.1777V22.3027C64.7126 24.1692 63.1382 25.4988 61.056 25.4988ZM77.1035 28.4906C75.8719 31.9807 74.4626 33.1312 71.4661 33.1312C71.2376 33.1312 70.4758 33.1057 70.298 33.0545V30.6639C70.4885 30.6895 70.9582 30.715 71.1995 30.715C72.558 30.715 73.3198 30.1398 73.7896 28.644L74.069 27.7619L68.8633 13.252H72.0756L75.6941 25.0261H75.7576L79.3762 13.252H82.4996L77.1035 28.4906Z" fill="black"/>
</svg>
