<svg
                      xmlns="http://www.w3.org/2000/svg"
                      width="20"
                      height="20"
                      viewBox="0 0 20 20"
                      fill="none"
                    >
                      <path
                        d="M13.4792 12.3566C13.6301 12.0462 13.5008 11.6722 13.1903 11.5213C12.8799 11.3704 12.5059 11.4997 12.355 11.8101C12.3046 11.9137 12.0517 12.256 11.6056 12.575C11.1747 12.883 10.6242 13.125 10.0004 13.125C8.69022 13.125 7.99143 12.3347 7.6082 11.7434C7.42046 11.4538 7.03345 11.3712 6.7438 11.5589C6.45414 11.7466 6.37152 12.1337 6.55926 12.4233C7.04023 13.1654 8.06984 14.375 10.0004 14.375C10.9536 14.375 11.7534 14.0059 12.3326 13.5918C12.8966 13.1885 13.3135 12.6975 13.4792 12.3566Z"
                        fill="black"
                      />
                      <path
                        fill-rule="evenodd"
                        clip-rule="evenodd"
                        d="M11.2561 2.15038L11.985 2.62786L18.6743 6.97591C18.9638 7.16403 19.0459 7.55115 18.8578 7.84056C18.6696 8.12997 18.2825 8.21209 17.9931 8.02397L17.2608 7.54796C17.2815 7.70262 17.2921 7.85957 17.2921 8.01795V15.0001C17.2921 16.9561 15.7064 18.5417 13.7504 18.5417H6.2504C4.29439 18.5417 2.70873 16.9561 2.70873 15.0001V8.01795C2.70873 7.85957 2.71932 7.70262 2.74001 7.54796L2.00768 8.02397C1.71827 8.21209 1.33116 8.12997 1.14304 7.84056C0.95492 7.55115 1.03704 7.16403 1.32645 6.97591L8.01575 2.62787L8.74474 2.15038C9.50733 1.65088 10.4935 1.65088 11.2561 2.15038ZM10.5681 3.19771L11.3019 3.67469L15.0061 6.10091C15.6525 6.52435 16.0421 7.24512 16.0421 8.01795V15.0001C16.0421 16.2657 15.0161 17.2917 13.7504 17.2917H6.2504C4.98475 17.2917 3.95873 16.2657 3.95873 15.0001V8.01795C3.95873 7.24512 4.34825 6.52435 4.99474 6.10091L8.69886 3.6747L9.4327 3.19771C9.77791 2.97332 10.2229 2.97332 10.5681 3.19771Z"
                        fill="black"
                      />
                    </svg>