  <svg
                      xmlns="http://www.w3.org/2000/svg"
                      width="20"
                      height="20"
                      viewBox="0 0 20 20"
                      fill="none"
                    >
                      <path
                        fill-rule="evenodd"
                        clip-rule="evenodd"
                        d="M4.37381 5.83329C4.37381 4.60103 5.34641 3.59593 6.56583 3.54375C6.82383 4.27089 7.5178 4.79163 8.33339 4.79163H12.5001C13.3156 4.79163 14.0095 4.27094 14.2676 3.54386C15.4858 3.59727 16.4571 4.60185 16.4571 5.83329V10.8333C16.4571 11.1785 16.737 11.4583 17.0821 11.4583C17.4273 11.4583 17.7071 11.1785 17.7071 10.8333V5.83329C17.7071 3.91187 16.1771 2.34782 14.2689 2.29311C14.0119 1.56409 13.317 1.04163 12.5001 1.04163H8.33339C7.51647 1.04163 6.82158 1.56405 6.56458 2.29304C4.65523 2.34645 3.12381 3.91103 3.12381 5.83329V10.0887C3.12381 11.3163 2.86619 12.5303 2.36761 13.6521C1.94032 14.6135 2.33698 15.6634 3.1422 16.1627C3.30676 17.7337 4.6354 18.9583 6.25005 18.9583H10.8334C11.1786 18.9583 11.4584 18.6785 11.4584 18.3333C11.4584 17.9881 11.1786 17.7083 10.8334 17.7083H6.25005C5.43367 17.7083 4.73914 17.1865 4.48174 16.4583H10.8334C11.1786 16.4583 11.4584 16.1785 11.4584 15.8333C11.4584 15.4881 11.1786 15.2083 10.8334 15.2083H4.19127C3.65166 15.2083 3.29072 14.6529 3.50987 14.1598C4.07949 12.8782 4.37381 11.4912 4.37381 10.0887V5.83329ZM13.1238 2.91663C13.1238 2.90721 13.124 2.89785 13.1244 2.88854C13.1097 2.5564 12.8358 2.29163 12.5001 2.29163H8.33339C7.98821 2.29163 7.70839 2.57145 7.70839 2.91663C7.70839 3.2618 7.98821 3.54163 8.33339 3.54163H12.5001C12.8358 3.54163 13.1097 3.27686 13.1244 2.94471C13.124 2.9354 13.1238 2.92604 13.1238 2.91663Z"
                        fill="black"
                      />
                      <path
                        fill-rule="evenodd"
                        clip-rule="evenodd"
                        d="M18.06 13.1655C17.4505 12.5559 16.4621 12.5559 15.8526 13.1655L13.2087 15.8094C13.0368 15.9812 12.9272 16.2055 12.897 16.4466L12.7157 17.8973C12.6795 18.1863 12.7789 18.4758 12.9849 18.6818C13.1908 18.8878 13.4804 18.9871 13.7694 18.951L15.2201 18.7697C15.4612 18.7395 15.6855 18.6299 15.8573 18.458L18.5012 15.8141C19.1108 15.2045 19.1108 14.2162 18.5012 13.6067L18.06 13.1655ZM16.7365 14.0494C16.8579 13.9279 17.0547 13.9279 17.1761 14.0494L17.6173 14.4905C17.7387 14.612 17.7387 14.8088 17.6173 14.9302L15.0115 17.536L14.0048 17.6618L14.1307 16.6551L16.7365 14.0494Z"
                        fill="black"
                      />
                      <path
                        d="M7.29172 11.4583C7.29172 11.1131 7.57154 10.8333 7.91672 10.8333H12.9167C13.2619 10.8333 13.5417 11.1131 13.5417 11.4583C13.5417 11.8035 13.2619 12.0833 12.9167 12.0833H7.91672C7.57154 12.0833 7.29172 11.8035 7.29172 11.4583Z"
                        fill="black"
                      />
                      <path
                        d="M7.91672 7.91663C7.57154 7.91663 7.29172 8.19645 7.29172 8.54163C7.29172 8.8868 7.57154 9.16663 7.91672 9.16663H10.0001C10.3452 9.16663 10.6251 8.8868 10.6251 8.54163C10.6251 8.19645 10.3452 7.91663 10.0001 7.91663H7.91672Z"
                        fill="black"
                      />
                    </svg>