<svg xmlns="http://www.w3.org/2000/svg" width="24" height="24" viewBox="0 0 24 24" fill="none">
  <path fill-rule="evenodd" clip-rule="evenodd" d="M5.49927 3.66613C2.79554 6.68478 1.80117 12.3414 6.76408 17.3043C11.6497 22.19 17.3111 21.2068 20.3256 18.5022C20.6224 18.2256 20.7632 17.9826 20.7415 17.6982C20.7167 17.372 20.4625 16.7339 19.2795 15.7354C18.6059 15.1697 18.1727 14.9941 17.9168 14.9927C17.768 14.9919 17.5106 15.0502 17.1768 15.6607L17.176 15.6621L17.1704 15.6726C16.798 16.3616 16.3531 17.1848 15.6275 17.6272C14.7983 18.1328 13.8157 18.051 12.6415 17.5184L12.6406 17.518C9.71433 16.1858 7.81256 14.2872 6.47836 11.3557C5.94406 10.1818 5.86361 9.20036 6.36977 8.37138C6.60276 7.98981 6.92748 7.69972 7.25958 7.46306C7.58927 7.22812 7.96738 7.01791 8.331 6.8186C8.9448 6.48216 9.00442 6.22365 9.00391 6.0753C9.00303 5.82164 8.82916 5.39014 8.26111 4.71714C7.26065 3.53184 6.62192 3.27731 6.2964 3.25241C6.01351 3.23077 5.77254 3.37081 5.49927 3.66613ZM6.4108 1.75678C7.34506 1.82824 8.3233 2.46526 9.40737 3.74963C10.0105 4.46419 10.5011 5.25084 10.5039 6.07009C10.5071 6.99464 9.90975 7.6638 9.05198 8.13396C8.67983 8.33795 8.37722 8.50851 8.1301 8.68462C7.88538 8.85901 7.7372 9.01025 7.65 9.15307C7.51578 9.37288 7.40587 9.77256 7.84361 10.7344C9.02759 13.3358 10.6649 14.9704 13.2621 16.1528C14.2258 16.5898 14.6269 16.4804 14.8466 16.3465C15.1653 16.1522 15.4333 15.7318 15.858 14.946L15.8596 14.943C16.3294 14.083 16.9998 13.4877 17.925 13.4927C18.7433 13.4972 19.5302 13.987 20.2449 14.5874L20.2462 14.5885C21.5294 15.6713 22.166 16.6493 22.2372 17.5844C22.3114 18.56 21.7548 19.2222 21.3417 19.6056L21.3328 19.6138C17.7601 22.8243 11.1868 23.8483 5.70342 18.365C0.148253 12.8098 1.17328 6.24296 4.38618 2.66061L4.39313 2.65287C4.77424 2.23962 5.43509 1.68214 6.4108 1.75678Z" fill="black"/>
</svg>