   <svg
                      xmlns="http://www.w3.org/2000/svg"
                      width="20"
                      height="20"
                      viewBox="0 0 20 20"
                      fill="none"
                    >
                      <path
                        d="M2.08301 6.82235C2.16972 5.07258 2.42915 3.98164 3.20521 3.20557C3.98127 2.42952 5.07222 2.17009 6.82198 2.08337M17.9163 6.82235C17.8296 5.07258 17.5702 3.98164 16.7942 3.20557C16.0181 2.42952 14.9271 2.17009 13.1773 2.08337M13.1773 17.9167C14.9271 17.83 16.0181 17.5705 16.7942 16.7945C17.5702 16.0185 17.8296 14.9275 17.9163 13.1777M6.82197 17.9167C5.07222 17.83 3.98127 17.5705 3.20521 16.7945C2.42915 16.0185 2.16972 14.9275 2.08301 13.1777"
                        stroke="#0C0C0C"
                        stroke-width="1.25"
                        stroke-linecap="round"
                        stroke-linejoin="round"
                      />
                      <path
                        d="M2.08301 10H17.9164"
                        stroke="#0C0C0C"
                        stroke-width="1.25"
                        stroke-linecap="round"
                      />
                      <path
                        d="M5 10C5 7.23857 7.23857 5 10 5C10 6.38071 11.1192 7.5 12.5 7.5C13.0629 7.5 13.5824 7.31393 14.0003 6.99994C14.628 7.83561 15 8.87433 15 10M14.3311 12.5C13.4666 13.9945 11.8507 15 10 15C8.14929 15 6.53343 13.9945 5.66891 12.5"
                        stroke="#0C0C0C"
                        stroke-width="1.25"
                        stroke-linecap="round"
                        stroke-linejoin="round"
                      />
                    </svg>