<svg xmlns="http://www.w3.org/2000/svg" width="24" height="24" viewBox="0 0 24 24" fill="none">
  <path fill-rule="evenodd" clip-rule="evenodd" d="M6.82462 5.9502H16.025C18.0823 5.9502 19.75 7.61794 19.75 9.6752V10.9502V15.6756C20.6151 15.4352 21.25 14.6419 21.25 13.7002V6.5002C21.25 5.36801 20.3322 4.4502 19.2 4.4502H8.8C7.85834 4.4502 7.06497 5.08511 6.82462 5.9502ZM19.75 17.2078V17.3252C19.75 19.3825 18.0823 21.0502 16.025 21.0502H4.975C2.91774 21.0502 1.25 19.3825 1.25 17.3252V10.9502V9.6752C1.25 7.61793 2.91774 5.9502 4.975 5.9502H5.29235C5.55667 4.25076 7.02645 2.9502 8.8 2.9502H19.2C21.1606 2.9502 22.75 4.53958 22.75 6.5002V13.7002C22.75 15.4737 21.4494 16.9435 19.75 17.2078ZM18.25 10.2002V9.6752C18.25 8.44636 17.2538 7.4502 16.025 7.4502H4.975C3.74617 7.4502 2.75 8.44636 2.75 9.6752V10.2002H18.25ZM2.75 11.7002H18.25V17.3252C18.25 18.554 17.2538 19.5502 16.025 19.5502H4.975C3.74617 19.5502 2.75 18.554 2.75 17.3252V11.7002ZM4.65039 16.9004C4.65039 16.4862 4.98618 16.1504 5.40039 16.1504H8.80039C9.2146 16.1504 9.55039 16.4862 9.55039 16.9004C9.55039 17.3146 9.2146 17.6504 8.80039 17.6504H5.40039C4.98618 17.6504 4.65039 17.3146 4.65039 16.9004Z" fill="black"/>
</svg>