   <svg
                        xmlns="http://www.w3.org/2000/svg"
                        width="220"
                        height="220"
                        viewBox="0 0 220 220"
                        fill="none"
                      >
                        <path
                          d="M110 6.6C110 2.95492 112.958 -0.0206392 116.596 0.197911C136.034 1.36543 154.856 7.67627 171.113 18.5383C189.202 30.6253 203.301 47.805 211.627 67.9048C219.952 88.0047 222.131 110.122 217.886 131.46C213.642 152.798 203.166 172.398 187.782 187.782C172.398 203.166 152.798 213.642 131.46 217.886C110.122 222.131 88.0047 219.952 67.9048 211.627C47.8049 203.301 30.6253 189.202 18.5383 171.113C7.67627 154.856 1.36543 136.034 0.197911 116.596C-0.0206393 112.958 2.95492 110 6.6 110C10.2451 110 13.1766 112.959 13.4249 116.595C14.5737 133.42 20.1024 149.694 29.5137 163.779C40.1503 179.698 55.2684 192.105 72.9562 199.432C90.6441 206.758 110.107 208.675 128.885 204.94C147.662 201.205 164.91 191.986 178.448 178.448C191.986 164.91 201.205 147.662 204.94 128.885C208.675 110.107 206.758 90.6441 199.432 72.9562C192.105 55.2684 179.698 40.1503 163.779 29.5137C149.694 20.1024 133.42 14.5737 116.595 13.4249C112.959 13.1766 110 10.2451 110 6.6Z"
                          fill="url(#paint0_linear_564_8258)"
                        />
                        <path
                          d="M6.67801 105.977C3.03569 105.836 0.177456 102.764 0.537312 99.1365C3.03507 73.9597 14.1504 50.3351 32.1107 32.3252C50.016 14.3704 75.0622 3.20347 100.4 0.591528C104.127 0.207364 107.25 3.21775 107.25 6.96418C107.25 10.4962 104.461 13.377 100.949 13.7498C78.7946 16.1016 57.148 25.9122 41.4574 41.6461C25.8397 57.307 16.1036 77.7922 13.7542 99.6526C13.3647 103.277 10.3203 106.119 6.67801 105.977Z"
                          fill="black"
                          fill-opacity="0.05"
                        />
                        <path
                          d="M110 27.3281C110 23.6261 113.005 20.5989 116.697 20.8762C128.499 21.7631 140.031 24.9873 150.613 30.3856C163.19 36.8013 174.068 46.1054 182.356 57.5355C190.644 68.9656 196.106 82.1967 198.295 96.1446C200.483 110.093 199.336 124.361 194.948 137.78C190.56 151.199 183.054 163.388 173.047 173.348C163.04 183.307 150.816 190.755 137.376 195.079C123.936 199.404 109.662 200.483 95.7249 198.228C83.9976 196.33 72.7889 192.118 62.7433 185.86C59.6011 183.902 58.9652 179.684 61.1526 176.698C63.3399 173.711 67.5209 173.091 70.6887 175.007C79.0061 180.036 88.2301 183.434 97.8661 184.993C109.713 186.91 121.845 185.993 133.269 182.317C144.693 178.641 155.084 172.311 163.59 163.846C172.096 155.38 178.476 145.019 182.206 133.613C185.936 122.207 186.911 110.079 185.05 98.2229C183.19 86.3671 178.547 75.1208 171.502 65.4052C164.458 55.6896 155.212 47.7811 144.521 42.3278C135.826 37.8921 126.377 35.1833 116.694 34.3268C113.007 34.0005 110 31.0302 110 27.3281Z"
                          fill="url(#paint1_linear_564_8258)"
                        />
                        <path
                          d="M57.7958 173.96C55.4671 176.838 51.2266 177.301 48.5312 174.763C37.0353 163.94 28.5809 150.232 24.0849 135.014C18.9542 117.646 19.2203 99.1299 24.8482 81.9171C30.476 64.7043 41.2 49.6073 55.5997 38.6255C68.1528 29.052 84.1716 23.0003 100.057 21.0265C103.848 20.5554 107.048 23.6202 107.048 27.4404C107.048 31.0083 104.241 33.9188 100.703 34.3802C87.4238 36.1121 74.2879 41.2332 63.7294 49.2854C51.4897 58.62 42.3743 71.4525 37.5906 86.0834C32.807 100.714 32.5807 116.453 36.9419 131.215C40.668 143.828 47.5927 155.22 56.9936 164.309C59.6552 166.882 60.1244 171.082 57.7958 173.96Z"
                          fill="black"
                          fill-opacity="0.05"
                        />
                        <path
                          d="M110 48.125C110 44.328 113.086 41.2144 116.864 41.5934C127.734 42.6841 138.223 46.354 147.441 52.3394C158.587 59.577 167.397 69.8899 172.803 82.0302C178.21 94.1704 179.982 107.618 177.905 120.744C175.828 133.871 169.991 146.114 161.101 155.992C152.21 165.87 140.647 172.96 127.811 176.403C114.975 179.846 101.417 179.495 88.7759 175.392C76.1353 171.289 64.9547 163.611 56.5873 153.286C49.6675 144.747 44.917 134.701 42.6916 124.005C41.9181 120.288 44.6907 116.892 48.4667 116.494C52.2427 116.095 55.584 118.85 56.4502 122.547C58.3372 130.601 62.0245 138.156 67.2698 144.629C73.9637 152.889 82.9082 159.031 93.0207 162.314C103.133 165.596 113.98 165.877 124.249 163.122C134.518 160.368 143.768 154.696 150.881 146.794C157.993 138.891 162.663 129.096 164.324 118.595C165.986 108.094 164.568 97.3364 160.243 87.6241C155.917 77.9119 148.87 69.6616 139.953 63.8715C132.965 59.3344 125.065 56.4605 116.857 55.4291C113.09 54.9557 110 51.922 110 48.125Z"
                          fill="url(#paint2_linear_564_8258)"
                        />
                        <path
                          d="M48.1721 112.411C44.378 112.559 41.1464 109.597 41.3778 105.807C42.3233 90.3242 48.4874 75.5386 58.9726 63.926C69.3809 52.3987 84.4955 44.7889 99.9842 42.2165C103.882 41.5691 107.226 44.7274 107.227 48.6789C107.227 52.2935 104.405 55.2431 100.847 55.8794C88.7928 58.0348 77.3659 64.0725 69.1781 73.1407C61.1001 82.0873 56.228 93.3882 55.2032 105.274C54.8771 109.057 51.9661 112.263 48.1721 112.411Z"
                          fill="black"
                          fill-opacity="0.05"
                        />
                        <defs>
                          <linearGradient
                            id="paint0_linear_564_8258"
                            x1="110"
                            y1="0"
                            x2="110"
                            y2="220"
                            gradientUnits="userSpaceOnUse"
                          >
                            <stop stop-color="#1DBF73" />
                            <stop offset="1" stop-color="#B2BF59" />
                          </linearGradient>
                          <linearGradient
                            id="paint1_linear_564_8258"
                            x1="110"
                            y1="20.625"
                            x2="110"
                            y2="199.375"
                            gradientUnits="userSpaceOnUse"
                          >
                            <stop stop-color="#F1DC7E" />
                            <stop offset="1" stop-color="#DCB918" />
                          </linearGradient>
                          <linearGradient
                            id="paint2_linear_564_8258"
                            x1="110"
                            y1="41.25"
                            x2="110"
                            y2="178.75"
                            gradientUnits="userSpaceOnUse"
                          >
                            <stop stop-color="#578FCA" />
                            <stop offset="1" stop-color="#4583C4" />
                          </linearGradient>
                        </defs>
                      </svg>