<svg width="12" height="12" viewBox="0 0 12 12" fill="none" xmlns="http://www.w3.org/2000/svg">
<path fill-rule="evenodd" clip-rule="evenodd" d="M0.625 3.75C0.625 2.5764 1.5764 1.625 2.75 1.625H9.25C10.4236 1.625 11.375 2.5764 11.375 3.75V5.5C11.375 5.70711 11.2071 5.875 11 5.875C10.7929 5.875 10.625 5.70711 10.625 5.5V4.875H1.375V8.25C1.375 9.00939 1.99061 9.625 2.75 9.625H8.375C8.58211 9.625 8.75 9.79289 8.75 10C8.75 10.2071 8.58211 10.375 8.375 10.375H2.75C1.5764 10.375 0.625 9.42361 0.625 8.25V3.75ZM1.375 4.125H10.625V3.75C10.625 2.99061 10.0094 2.375 9.25 2.375H2.75C1.99061 2.375 1.375 2.99061 1.375 3.75V4.125ZM2.375 6.25C2.375 6.04289 2.54289 5.875 2.75 5.875H4.5C4.70711 5.875 4.875 6.04289 4.875 6.25C4.875 6.45711 4.70711 6.625 4.5 6.625H2.75C2.54289 6.625 2.375 6.45711 2.375 6.25ZM10.5507 6.63044L11.2874 7.50908C11.4204 7.66779 11.3996 7.90431 11.2409 8.03737C11.0822 8.17043 10.8457 8.14963 10.7126 7.99092L10.375 7.58819V10C10.375 10.2071 10.2071 10.375 10 10.375C9.79289 10.375 9.625 10.2071 9.625 10V7.5881L9.28741 7.99088C9.15438 8.14961 8.91786 8.17044 8.75913 8.0374C8.6004 7.90437 8.57957 7.66785 8.7126 7.50912L9.44905 6.63044C9.59048 6.4617 9.79213 6.37657 9.99433 6.37504C9.99622 6.37501 9.99811 6.375 10 6.375C10.002 6.375 10.004 6.37502 10.0059 6.37505C10.208 6.37671 10.4094 6.46185 10.5507 6.63044Z" fill="#578FCA"/>
</svg>
