    <svg
                      xmlns="http://www.w3.org/2000/svg"
                      width="20"
                      height="20"
                      viewBox="0 0 20 20"
                      fill="none"
                    >
                      <path
                        d="M13.9583 5.83329C13.9583 5.48811 13.6785 5.20829 13.3333 5.20829H8.33333C7.98816 5.20829 7.70833 5.48811 7.70833 5.83329C7.70833 6.17847 7.98816 6.45829 8.33333 6.45829H13.3333C13.6785 6.45829 13.9583 6.17847 13.9583 5.83329Z"
                        fill="black"
                      />
                      <path
                        d="M13.3333 8.54163C13.6785 8.54163 13.9583 8.82145 13.9583 9.16663C13.9583 9.5118 13.6785 9.79163 13.3333 9.79163H11.25C10.9048 9.79163 10.625 9.5118 10.625 9.16663C10.625 8.82145 10.9048 8.54163 11.25 8.54163H13.3333Z"
                        fill="black"
                      />
                      <path
                        d="M8.16987 9.42363C8.24911 9.46321 8.32053 9.50348 8.3825 9.54221C8.67522 9.72516 8.7642 10.1108 8.58125 10.4035C8.39831 10.6962 8.01272 10.7852 7.72001 10.6022C7.58604 10.5185 7.34445 10.4122 7.10137 10.3828C6.86693 10.3545 6.70889 10.4026 6.59736 10.5142C6.50512 10.6064 6.47482 10.686 6.46394 10.7499C6.45169 10.8219 6.45918 10.9081 6.49029 11.0047C6.51809 11.091 6.62329 11.2111 6.92303 11.3614C6.93458 11.3663 6.94604 11.3717 6.95742 11.3773L7.63296 11.7151C7.97873 11.888 8.50529 12.2053 8.69949 12.8081C8.85817 13.3007 8.86208 13.9902 8.28652 14.5658C7.90795 14.9444 7.4498 15.0665 7.04049 15.0706L7.0301 15.1225C6.9624 15.461 6.63314 15.6805 6.29466 15.6128C5.95619 15.5451 5.73668 15.2159 5.80437 14.8774L5.8258 14.7703C5.74828 14.7314 5.67834 14.6919 5.6175 14.6539C5.32479 14.4709 5.2358 14.0853 5.41875 13.7926C5.60169 13.4999 5.98728 13.4109 6.27999 13.5939C6.41396 13.6776 6.65555 13.7839 6.89863 13.8133C7.13307 13.8416 7.29111 13.7934 7.40264 13.6819C7.49489 13.5897 7.52518 13.5101 7.53606 13.4461C7.54831 13.3742 7.54082 13.288 7.50971 13.1914C7.48191 13.1051 7.37671 12.985 7.07697 12.8347C7.06542 12.8297 7.05396 12.8244 7.04258 12.8187L6.36704 12.481C6.02127 12.3081 5.49471 11.9908 5.30051 11.388C5.14183 10.8954 5.13792 10.2058 5.71348 9.63027C6.09058 9.25317 6.54664 9.13057 6.95474 9.12554L6.97104 9.04405C7.03873 8.70558 7.368 8.48607 7.70647 8.55376C8.04495 8.62146 8.26446 8.95072 8.19676 9.2892L8.16987 9.42363Z"
                        fill="black"
                      />
                      <path
                        fill-rule="evenodd"
                        clip-rule="evenodd"
                        d="M1.875 4.58329C1.875 2.62728 3.46066 1.04163 5.41667 1.04163H14.5833C16.5393 1.04163 18.125 2.62728 18.125 4.58329V15.4166C18.125 17.3726 16.5393 18.9583 14.5833 18.9583H5.41667C3.46066 18.9583 1.875 17.3726 1.875 15.4166V4.58329ZM5.41667 2.29163C4.15101 2.29163 3.125 3.31764 3.125 4.58329V15.4166C3.125 16.6823 4.15101 17.7083 5.41667 17.7083H14.5833C15.849 17.7083 16.875 16.6823 16.875 15.4166V4.58329C16.875 3.31764 15.849 2.29163 14.5833 2.29163H5.41667Z"
                        fill="black"
                      />
                    </svg>