   <svg
                      xmlns="http://www.w3.org/2000/svg"
                      width="20"
                      height="20"
                      viewBox="0 0 20 20"
                      fill="none"
                    >
                      <path
                        d="M8.75033 5.62504C8.40515 5.62504 8.12533 5.90486 8.12533 6.25004C8.12533 6.59522 8.40515 6.87504 8.75033 6.87504H11.2503C11.5955 6.87504 11.8753 6.59522 11.8753 6.25004C11.8753 5.90486 11.5955 5.62504 11.2503 5.62504H8.75033Z"
                        fill="black"
                      />
                      <path
                        fill-rule="evenodd"
                        clip-rule="evenodd"
                        d="M9.39439 1.87813C10.0468 1.56745 10.8075 1.58269 11.447 1.91925L17.7919 5.25868C18.5094 5.63632 18.9587 6.3804 18.9587 7.19122C18.9587 8.39734 17.9809 9.37509 16.7748 9.37509H16.4587V15.2382C16.9493 15.3391 17.3624 15.6884 17.5368 16.1727L17.9396 17.2917H18.3337C18.6788 17.2917 18.9587 17.5715 18.9587 17.9167C18.9587 18.2619 18.6788 18.5417 18.3337 18.5417H1.66699C1.32181 18.5417 1.04199 18.2619 1.04199 17.9167C1.04199 17.5715 1.32181 17.2917 1.66699 17.2917H2.06106L2.46389 16.1727C2.63826 15.6884 3.05131 15.3391 3.54199 15.2382V9.37509H3.19942C2.0079 9.37509 1.04199 8.40917 1.04199 7.21766C1.04199 6.38552 1.52056 5.62757 2.27187 5.26981L9.39439 1.87813ZM16.3607 16.5961L16.6111 17.2917H3.38959L3.64 16.5961C3.66975 16.5135 3.74816 16.4584 3.83601 16.4584H16.1646C16.2525 16.4584 16.3309 16.5135 16.3607 16.5961ZM7.29199 15.2084H4.79199V9.37509H7.29199V15.2084ZM8.54199 15.2084H11.4587V9.37509H8.54199V15.2084ZM12.7087 15.2084H15.2087V9.37509H12.7087V15.2084ZM16.7748 8.12509H15.8414L15.8337 8.12504L15.8259 8.12509H12.0914L12.0837 8.12504L12.0759 8.12509H7.92473L7.91699 8.12504L7.90926 8.12509H4.17473L4.16699 8.12504L4.15926 8.12509H3.19942C2.69826 8.12509 2.29199 7.71882 2.29199 7.21766C2.29199 6.86766 2.49328 6.54886 2.80929 6.39838L9.93181 3.0067C10.2284 2.86549 10.5742 2.87242 10.8648 3.02539L17.2097 6.36483C17.5166 6.52632 17.7087 6.8445 17.7087 7.19122C17.7087 7.70698 17.2906 8.12509 16.7748 8.12509Z"
                        fill="black"
                      />
                    </svg>