<svg width="100" height="40" viewBox="0 0 100 40" fill="none" xmlns="http://www.w3.org/2000/svg">
<path d="M77.0859 24.3176H77.1328L81.0186 14.5666H83.749L75.3545 34.1164H72.7646L75.8848 27.2775L70.377 14.5666H73.1074L77.0859 24.3176ZM63.9482 14.1232C65.8048 14.1233 67.2711 14.63 68.3477 15.6271C69.4243 16.6244 69.9551 18.0175 69.9551 19.7746V28.1486H67.5527V26.2648H67.4434C66.398 27.8161 65.0248 28.5919 63.293 28.592C61.8263 28.592 60.5777 28.1484 59.5947 27.2619C58.6274 26.4388 58.0811 25.2198 58.1123 23.9377C58.1123 22.5289 58.6432 21.4212 59.6885 20.5822C60.7339 19.7432 62.1382 19.3312 63.8857 19.3312C65.3836 19.3312 66.601 19.6163 67.5684 20.1545V19.5685C67.5683 18.698 67.1934 17.8747 66.5381 17.3049C65.8673 16.7035 65.0093 16.3714 64.1201 16.3713C62.7159 16.3713 61.6073 16.9729 60.7959 18.176L58.5811 16.7668C59.7669 15.0098 61.5611 14.1232 63.9482 14.1232ZM52.043 8.29901C53.65 8.26735 55.2106 8.88491 56.3496 10.0246C58.6275 12.1773 58.7681 15.8021 56.6309 18.1291L56.3496 18.4142C55.1794 19.5382 53.7437 20.1086 52.043 20.1086H47.8926V28.1496H45.3809V8.29901H52.043ZM64.2764 21.3898C63.2624 21.3899 62.4043 21.6425 61.7178 22.133C61.0467 22.6237 60.7031 23.2415 60.7031 23.9855C60.7031 24.6504 61.0153 25.2677 61.5303 25.6476C62.0919 26.0908 62.7784 26.3284 63.4805 26.3127C64.5416 26.3127 65.5566 25.885 66.3057 25.1252C67.1327 24.3337 67.5537 23.3998 67.5537 22.3234C66.7734 21.6903 65.6808 21.374 64.2764 21.3898ZM47.8926 17.6701H52.1064C53.0426 17.7016 53.9472 17.3213 54.5869 16.6408C55.8977 15.2637 55.8672 13.0477 54.5098 11.718C53.87 11.0849 53.0114 10.7366 52.1064 10.7365H47.8926V17.6701Z" fill="#3C4043"/>
<path d="M39.2211 18.3658C39.2211 17.5902 39.1587 16.8145 39.0339 16.0547H28.4395V20.4395H34.509C34.2594 21.8484 33.448 23.1148 32.2622 23.9063V26.7556H35.8821C38.0041 24.7769 39.2211 21.8484 39.2211 18.3658Z" fill="#4285F4"/>
<path d="M28.439 29.5098C31.4659 29.5098 34.0248 28.4967 35.8816 26.7554L32.2617 23.9061C31.2475 24.6026 29.9524 24.9983 28.439 24.9983C25.5056 24.9983 23.0247 22.9879 22.1354 20.2969H18.4062V23.2412C20.3098 27.0879 24.195 29.5098 28.439 29.5098Z" fill="#34A853"/>
<path d="M22.1364 20.2975C21.6682 18.8887 21.6682 17.3532 22.1364 15.9285V13H18.4067C16.7993 16.2135 16.7993 20.0126 18.4067 23.2261L22.1364 20.2975Z" fill="#FBBC04"/>
<path d="M28.439 11.227C30.0461 11.1954 31.5908 11.8127 32.7454 12.9367L35.9596 9.67571C33.9156 7.74447 31.2319 6.68387 28.439 6.71553C24.195 6.71553 20.3098 9.15332 18.4062 13L22.1354 15.9443C23.0247 13.2374 25.5056 11.227 28.439 11.227Z" fill="#EA4335"/>
</svg>
