<svg width="144" height="48" viewBox="0 0 144 48" fill="none" xmlns="http://www.w3.org/2000/svg">
<rect x="0.6" y="0.6" width="142.8" height="46.8" rx="6.6" fill="black"/>
<rect x="0.6" y="0.6" width="142.8" height="46.8" rx="6.6" stroke="#A6A6A6" stroke-width="1.2"/>
<path d="M21.3653 23.3544L9.70703 36.0075C9.70813 36.0097 9.70813 36.0131 9.70922 36.0153C10.0673 37.3893 11.2937 38.4004 12.75 38.4004C13.3325 38.4004 13.8789 38.2391 14.3476 37.957L14.3848 37.9346L27.507 30.1916L21.3653 23.3544Z" fill="#EA4335"/>
<path d="M33.1596 21.199L33.1487 21.1912L27.4832 17.8331L21.1006 23.6412L27.5062 30.1895L33.141 26.8649C34.1287 26.3185 34.7999 25.2536 34.7999 24.0264C34.7999 22.8059 34.1385 21.7466 33.1596 21.199Z" fill="#FBBC04"/>
<path d="M9.70692 11.9917C9.63684 12.256 9.59961 12.5337 9.59961 12.8203V35.1793C9.59961 35.466 9.63684 35.7437 9.70801 36.0068L21.7659 23.6773L9.70692 11.9917Z" fill="#4285F4"/>
<path d="M21.4518 24L27.4851 17.8313L14.3782 10.0603C13.9019 9.76806 13.3457 9.6001 12.7511 9.6001C11.2948 9.6001 10.0662 10.6135 9.70813 11.9885C9.70813 11.9896 9.70703 11.9908 9.70703 11.9919L21.4518 24Z" fill="#34A853"/>
<path d="M52.3322 13.052C52.3322 14.252 51.9762 15.208 51.2642 15.92C50.4642 16.768 49.4122 17.192 48.1082 17.192C46.8602 17.192 45.8042 16.76 44.9402 15.896C44.0762 15.032 43.6442 13.968 43.6442 12.704C43.6442 11.44 44.0762 10.376 44.9402 9.512C45.8042 8.648 46.8602 8.216 48.1082 8.216C48.7402 8.216 49.3362 8.328 49.8962 8.552C50.4562 8.776 50.9162 9.092 51.2762 9.5L50.4842 10.292C50.2202 9.972 49.8762 9.724 49.4522 9.548C49.0362 9.364 48.5882 9.272 48.1082 9.272C47.1722 9.272 46.3802 9.596 45.7322 10.244C45.0922 10.9 44.7722 11.72 44.7722 12.704C44.7722 13.688 45.0922 14.508 45.7322 15.164C46.3802 15.812 47.1722 16.136 48.1082 16.136C48.9642 16.136 49.6762 15.896 50.2442 15.416C50.8122 14.936 51.1402 14.276 51.2282 13.436H48.1082V12.404H52.2722C52.3122 12.628 52.3322 12.844 52.3322 13.052ZM58.6896 8.408V9.464H54.7776V12.188H58.3056V13.22H54.7776V15.944H58.6896V17H53.6736V8.408H58.6896ZM63.1055 9.464V17H62.0015V9.464H59.6015V8.408H65.5055V9.464H63.1055ZM70.3987 17H69.2947V8.408H70.3987V17ZM75.0586 9.464V17H73.9546V9.464H71.5546V8.408H77.4586V9.464H75.0586ZM89.4254 12.704C89.4254 13.976 89.0014 15.04 88.1534 15.896C87.2974 16.76 86.2494 17.192 85.0094 17.192C83.7614 17.192 82.7134 16.76 81.8654 15.896C81.0174 15.04 80.5934 13.976 80.5934 12.704C80.5934 11.432 81.0174 10.368 81.8654 9.512C82.7134 8.648 83.7614 8.216 85.0094 8.216C86.2574 8.216 87.3054 8.652 88.1534 9.524C89.0014 10.38 89.4254 11.44 89.4254 12.704ZM81.7214 12.704C81.7214 13.696 82.0334 14.516 82.6574 15.164C83.2894 15.812 84.0734 16.136 85.0094 16.136C85.9454 16.136 86.7254 15.812 87.3494 15.164C87.9814 14.524 88.2974 13.704 88.2974 12.704C88.2974 11.704 87.9814 10.884 87.3494 10.244C86.7254 9.596 85.9454 9.272 85.0094 9.272C84.0734 9.272 83.2894 9.596 82.6574 10.244C82.0334 10.892 81.7214 11.712 81.7214 12.704ZM91.8323 17H90.7283V8.408H92.0723L96.2483 15.092H96.2963L96.2483 13.436V8.408H97.3523V17H96.2003L91.8323 9.992H91.7843L91.8323 11.648V17Z" fill="white"/>
<path d="M112.222 35.2912H114.177V22.0774H112.222V35.2912ZM129.827 26.8371L127.586 32.5662H127.519L125.194 26.8371H123.088L126.575 34.8441L124.588 39.2984H126.626L132 26.8371H129.827ZM118.742 33.7902C118.101 33.7902 117.209 33.4678 117.209 32.6677C117.209 31.6487 118.32 31.2576 119.281 31.2576C120.14 31.2576 120.545 31.4447 121.067 31.6994C120.915 32.9235 119.871 33.7902 118.742 33.7902ZM118.978 26.5486C117.563 26.5486 116.097 27.1775 115.491 28.5717L117.226 29.3021C117.596 28.5717 118.287 28.3328 119.012 28.3328C120.022 28.3328 121.05 28.9448 121.067 30.0336V30.1689C120.713 29.9649 119.955 29.6594 119.028 29.6594C117.159 29.6594 115.254 30.6963 115.254 32.6338C115.254 34.4022 116.788 35.5417 118.506 35.5417C119.82 35.5417 120.545 34.9466 121 34.249H121.067V35.269H122.953V30.2027C122.953 27.8572 121.219 26.5486 118.978 26.5486ZM106.899 28.4459H104.119V23.9166H106.899C108.36 23.9166 109.19 25.1375 109.19 26.1807C109.19 27.205 108.36 28.4459 106.899 28.4459ZM106.848 22.0774H102.165V35.2912H104.119V30.2851H106.848C109.015 30.2851 111.144 28.7017 111.144 26.1807C111.144 23.6597 109.015 22.0774 106.848 22.0774ZM81.3102 33.7923C79.96 33.7923 78.8298 32.6518 78.8298 31.0853C78.8298 29.5019 79.96 28.3434 81.3102 28.3434C82.6436 28.3434 83.689 29.5019 83.689 31.0853C83.689 32.6518 82.6436 33.7923 81.3102 33.7923ZM83.5549 27.5771H83.4868C83.0479 27.0496 82.2047 26.5729 81.1415 26.5729C78.9136 26.5729 76.8721 28.5474 76.8721 31.0853C76.8721 33.6052 78.9136 35.5639 81.1415 35.5639C82.2047 35.5639 83.0479 35.0872 83.4868 34.5418H83.5549V35.1897C83.5549 36.9095 82.6436 37.8291 81.175 37.8291C79.9767 37.8291 79.2341 36.9602 78.9303 36.2277L77.2261 36.9433C77.7153 38.1356 79.0152 39.5996 81.175 39.5996C83.47 39.5996 85.411 38.2371 85.411 34.917V26.8445H83.5549V27.5771ZM86.7612 35.2912H88.7189V22.0763H86.7612V35.2912ZM91.6036 30.932C91.5533 29.1954 92.937 28.3096 93.9321 28.3096C94.7094 28.3096 95.3672 28.7007 95.5861 29.263L91.6036 30.932ZM97.6789 29.4332C97.3081 28.429 96.1769 26.5729 93.8651 26.5729C91.5701 26.5729 89.6637 28.3941 89.6637 31.0684C89.6637 33.5883 91.5533 35.5639 94.084 35.5639C96.1266 35.5639 97.3081 34.3039 97.7973 33.5714L96.2785 32.5493C95.7725 33.2987 95.0802 33.7923 94.084 33.7923C93.0889 33.7923 92.3798 33.3325 91.9241 32.4309L97.8811 29.9437L97.6789 29.4332ZM50.2203 27.9523V29.8592H54.7422C54.6071 30.932 54.2531 31.7153 53.7136 32.2597C53.0548 32.9245 52.0251 33.657 50.2203 33.657C47.4351 33.657 45.2585 31.3918 45.2585 28.5823C45.2585 25.7717 47.4351 23.5075 50.2203 23.5075C51.7224 23.5075 52.8191 24.1037 53.6288 24.87L54.9622 23.5244C53.8309 22.4347 52.3299 21.5996 50.2203 21.5996C46.4065 21.5996 43.2002 24.7337 43.2002 28.5823C43.2002 32.4309 46.4065 35.5639 50.2203 35.5639C52.2786 35.5639 53.8309 34.8821 55.046 33.6052C56.2956 32.3453 56.6832 30.5748 56.6832 29.1436C56.6832 28.7007 56.6497 28.2927 56.5816 27.9523H50.2203ZM61.8252 33.7923C60.475 33.7923 59.3102 32.6687 59.3102 31.0684C59.3102 29.4501 60.475 28.3434 61.8252 28.3434C63.1743 28.3434 64.3391 29.4501 64.3391 31.0684C64.3391 32.6687 63.1743 33.7923 61.8252 33.7923ZM61.8252 26.5729C59.3605 26.5729 57.3525 28.4628 57.3525 31.0684C57.3525 33.657 59.3605 35.5639 61.8252 35.5639C64.2888 35.5639 66.2968 33.657 66.2968 31.0684C66.2968 28.4628 64.2888 26.5729 61.8252 26.5729ZM71.5803 33.7923C70.2301 33.7923 69.0653 32.6687 69.0653 31.0684C69.0653 29.4501 70.2301 28.3434 71.5803 28.3434C72.9304 28.3434 74.0942 29.4501 74.0942 31.0684C74.0942 32.6687 72.9304 33.7923 71.5803 33.7923ZM71.5803 26.5729C69.1166 26.5729 67.1086 28.4628 67.1086 31.0684C67.1086 33.657 69.1166 35.5639 71.5803 35.5639C74.0439 35.5639 76.0519 33.657 76.0519 31.0684C76.0519 28.4628 74.0439 26.5729 71.5803 26.5729Z" fill="white"/>
</svg>
