<svg width="1440" height="1024" viewBox="0 0 1440 1024" fill="none" xmlns="http://www.w3.org/2000/svg">
<g clip-path="url(#clip0_734_10624)">
<rect width="1440" height="1024" fill="#033220"/>
<g filter="url(#filter0_fn_734_10624)">
<circle cx="250" cy="932" r="328" fill="#1BB15F"/>
</g>
<g filter="url(#filter1_fn_734_10624)">
<circle cx="1383" cy="30" r="328" fill="#F8F36A"/>
</g>
<g opacity="0.6">
<mask id="mask0_734_10624" style="mask-type:alpha" maskUnits="userSpaceOnUse" x="-232" y="-264" width="2194" height="1552">
<g opacity="0.12">
<rect x="-11.2845" y="-40.9818" width="109.592" height="109.592" stroke="white" stroke-width="1.1536"/>
<rect x="98.3073" y="-40.9818" width="109.592" height="109.592" stroke="white" stroke-width="1.1536"/>
<rect x="207.899" y="-40.9818" width="109.592" height="109.592" stroke="white" stroke-width="1.1536"/>
<rect x="317.491" y="-40.9818" width="109.592" height="109.592" stroke="white" stroke-width="1.1536"/>
<rect x="427.085" y="-40.9818" width="109.592" height="109.592" stroke="white" stroke-width="1.1536"/>
<rect x="536.676" y="-40.9818" width="109.592" height="109.592" stroke="white" stroke-width="1.1536"/>
<rect x="646.268" y="-40.9818" width="109.592" height="109.592" stroke="white" stroke-width="1.1536"/>
<rect x="755.86" y="-40.9818" width="109.592" height="109.592" stroke="white" stroke-width="1.1536"/>
<rect x="865.454" y="-40.9818" width="109.592" height="109.592" stroke="white" stroke-width="1.1536"/>
<rect x="975.046" y="-40.9818" width="109.592" height="109.592" stroke="white" stroke-width="1.1536"/>
<rect x="1084.64" y="-40.9818" width="109.592" height="109.592" stroke="white" stroke-width="1.1536"/>
<rect x="1194.23" y="-40.9818" width="109.592" height="109.592" stroke="white" stroke-width="1.1536"/>
<rect x="1303.82" y="-40.9818" width="109.592" height="109.592" stroke="white" stroke-width="1.1536"/>
<rect x="1413.41" y="-40.9818" width="109.592" height="109.592" stroke="white" stroke-width="1.1536"/>
<rect x="-11.2845" y="69.7643" width="109.592" height="109.592" stroke="white" stroke-width="1.1536"/>
<rect x="98.3073" y="69.7643" width="109.592" height="109.592" stroke="white" stroke-width="1.1536"/>
<rect x="207.899" y="69.7643" width="109.592" height="109.592" stroke="white" stroke-width="1.1536"/>
<rect x="317.491" y="69.7643" width="109.592" height="109.592" stroke="white" stroke-width="1.1536"/>
<rect x="427.085" y="69.7643" width="109.592" height="109.592" stroke="white" stroke-width="1.1536"/>
<rect x="536.676" y="69.7643" width="109.592" height="109.592" stroke="white" stroke-width="1.1536"/>
<rect x="646.268" y="69.7643" width="109.592" height="109.592" stroke="white" stroke-width="1.1536"/>
<rect x="755.86" y="69.7643" width="109.592" height="109.592" stroke="white" stroke-width="1.1536"/>
<rect x="865.454" y="69.7643" width="109.592" height="109.592" stroke="white" stroke-width="1.1536"/>
<rect x="975.046" y="69.7643" width="109.592" height="109.592" stroke="white" stroke-width="1.1536"/>
<rect x="1084.64" y="69.7643" width="109.592" height="109.592" stroke="white" stroke-width="1.1536"/>
<rect x="1194.23" y="69.7643" width="109.592" height="109.592" stroke="white" stroke-width="1.1536"/>
<rect x="1303.82" y="69.7643" width="109.592" height="109.592" stroke="white" stroke-width="1.1536"/>
<rect x="1413.41" y="69.7643" width="109.592" height="109.592" stroke="white" stroke-width="1.1536"/>
<rect x="-11.2845" y="180.509" width="109.592" height="109.592" stroke="white" stroke-width="1.1536"/>
<rect x="98.3073" y="180.509" width="109.592" height="109.592" stroke="white" stroke-width="1.1536"/>
<rect x="207.899" y="180.509" width="109.592" height="109.592" stroke="white" stroke-width="1.1536"/>
<rect x="316.914" y="179.933" width="110.746" height="110.746" fill="white" fill-opacity="0.13"/>
<rect x="427.085" y="180.509" width="109.592" height="109.592" stroke="white" stroke-width="1.1536"/>
<rect x="536.676" y="180.509" width="109.592" height="109.592" stroke="white" stroke-width="1.1536"/>
<rect x="646.268" y="180.509" width="109.592" height="109.592" stroke="white" stroke-width="1.1536"/>
<rect x="755.86" y="180.509" width="109.592" height="109.592" stroke="white" stroke-width="1.1536"/>
<rect x="865.454" y="180.509" width="109.592" height="109.592" stroke="white" stroke-width="1.1536"/>
<rect x="975.046" y="180.509" width="109.592" height="109.592" stroke="white" stroke-width="1.1536"/>
<rect x="1084.06" y="179.933" width="110.746" height="110.746" fill="white" fill-opacity="0.13"/>
<rect x="1194.23" y="180.509" width="109.592" height="109.592" stroke="white" stroke-width="1.1536"/>
<rect x="1303.25" y="179.933" width="110.746" height="110.746" fill="white" fill-opacity="0.13"/>
<rect x="1413.41" y="180.509" width="109.592" height="109.592" stroke="white" stroke-width="1.1536"/>
<rect x="-11.2845" y="291.256" width="109.592" height="109.592" stroke="white" stroke-width="1.1536"/>
<rect x="98.3073" y="291.256" width="109.592" height="109.592" stroke="white" stroke-width="1.1536"/>
<rect x="207.322" y="290.679" width="110.746" height="110.746" fill="white" fill-opacity="0.13"/>
<rect x="317.491" y="291.256" width="109.592" height="109.592" stroke="white" stroke-width="1.1536"/>
<rect x="426.508" y="290.679" width="110.746" height="110.746" fill="white" fill-opacity="0.13"/>
<rect x="536.676" y="291.256" width="109.592" height="109.592" stroke="white" stroke-width="1.1536"/>
<rect x="646.268" y="291.256" width="109.592" height="109.592" stroke="white" stroke-width="1.1536"/>
<rect x="755.86" y="291.256" width="109.592" height="109.592" stroke="white" stroke-width="1.1536"/>
<rect x="865.454" y="291.256" width="109.592" height="109.592" stroke="white" stroke-width="1.1536"/>
<rect x="974.469" y="290.679" width="110.746" height="110.746" fill="white" fill-opacity="0.13"/>
<rect x="1084.64" y="291.256" width="109.592" height="109.592" stroke="white" stroke-width="1.1536"/>
<rect x="1193.65" y="290.679" width="110.746" height="110.746" fill="white" fill-opacity="0.13"/>
<rect x="1303.82" y="291.256" width="109.592" height="109.592" stroke="white" stroke-width="1.1536"/>
<rect x="1413.41" y="291.256" width="109.592" height="109.592" stroke="white" stroke-width="1.1536"/>
<rect x="-11.2845" y="402.002" width="109.592" height="109.592" stroke="white" stroke-width="1.1536"/>
<rect x="97.7305" y="401.425" width="110.746" height="110.746" fill="white" fill-opacity="0.13"/>
<rect x="207.899" y="402.002" width="109.592" height="109.592" stroke="white" stroke-width="1.1536"/>
<rect x="316.914" y="401.425" width="110.746" height="110.746" fill="white" fill-opacity="0.13"/>
<rect x="427.085" y="402.002" width="109.592" height="109.592" stroke="white" stroke-width="1.1536"/>
<rect x="536.676" y="402.002" width="109.592" height="109.592" stroke="white" stroke-width="1.1536"/>
<rect x="646.268" y="402.002" width="109.592" height="109.592" stroke="white" stroke-width="1.1536"/>
<rect x="755.86" y="402.002" width="109.592" height="109.592" stroke="white" stroke-width="1.1536"/>
<rect x="865.454" y="402.002" width="109.592" height="109.592" stroke="white" stroke-width="1.1536"/>
<rect x="975.046" y="402.002" width="109.592" height="109.592" stroke="white" stroke-width="1.1536"/>
<rect x="1084.06" y="401.425" width="110.746" height="110.746" fill="white" fill-opacity="0.13"/>
<rect x="1194.23" y="402.002" width="109.592" height="109.592" stroke="white" stroke-width="1.1536"/>
<rect x="1303.82" y="402.002" width="109.592" height="109.592" stroke="white" stroke-width="1.1536"/>
<rect x="1413.41" y="402.002" width="109.592" height="109.592" stroke="white" stroke-width="1.1536"/>
<rect x="-11.2845" y="512.748" width="109.592" height="109.592" stroke="white" stroke-width="1.1536"/>
<rect x="98.3073" y="512.748" width="109.592" height="109.592" stroke="white" stroke-width="1.1536"/>
<rect x="207.899" y="512.748" width="109.592" height="109.592" stroke="white" stroke-width="1.1536"/>
<rect x="317.491" y="512.748" width="109.592" height="109.592" stroke="white" stroke-width="1.1536"/>
<rect x="427.085" y="512.748" width="109.592" height="109.592" stroke="white" stroke-width="1.1536"/>
<rect x="536.676" y="512.748" width="109.592" height="109.592" stroke="white" stroke-width="1.1536"/>
<rect x="646.268" y="512.748" width="109.592" height="109.592" stroke="white" stroke-width="1.1536"/>
<rect x="755.86" y="512.748" width="109.592" height="109.592" stroke="white" stroke-width="1.1536"/>
<rect x="865.454" y="512.748" width="109.592" height="109.592" stroke="white" stroke-width="1.1536"/>
<rect x="975.046" y="512.748" width="109.592" height="109.592" stroke="white" stroke-width="1.1536"/>
<rect x="1084.64" y="512.748" width="109.592" height="109.592" stroke="white" stroke-width="1.1536"/>
<rect x="1194.23" y="512.748" width="109.592" height="109.592" stroke="white" stroke-width="1.1536"/>
<rect x="1303.82" y="512.748" width="109.592" height="109.592" stroke="white" stroke-width="1.1536"/>
<rect x="1413.41" y="512.748" width="109.592" height="109.592" stroke="white" stroke-width="1.1536"/>
<rect x="-11.2845" y="623.494" width="109.592" height="109.592" stroke="white" stroke-width="1.1536"/>
<rect x="98.3073" y="623.494" width="109.592" height="109.592" stroke="white" stroke-width="1.1536"/>
<rect x="207.899" y="623.494" width="109.592" height="109.592" stroke="white" stroke-width="1.1536"/>
<rect x="317.491" y="623.494" width="109.592" height="109.592" stroke="white" stroke-width="1.1536"/>
<rect x="427.085" y="623.494" width="109.592" height="109.592" stroke="white" stroke-width="1.1536"/>
<rect x="536.676" y="623.494" width="109.592" height="109.592" stroke="white" stroke-width="1.1536"/>
<rect x="646.268" y="623.494" width="109.592" height="109.592" stroke="white" stroke-width="1.1536"/>
<rect x="755.86" y="623.494" width="109.592" height="109.592" stroke="white" stroke-width="1.1536"/>
<rect x="865.454" y="623.494" width="109.592" height="109.592" stroke="white" stroke-width="1.1536"/>
<rect x="974.469" y="622.917" width="110.746" height="110.746" fill="white" fill-opacity="0.13"/>
<rect x="1084.64" y="623.494" width="109.592" height="109.592" stroke="white" stroke-width="1.1536"/>
<rect x="1194.23" y="623.494" width="109.592" height="109.592" stroke="white" stroke-width="1.1536"/>
<rect x="1303.82" y="623.494" width="109.592" height="109.592" stroke="white" stroke-width="1.1536"/>
<rect x="1413.41" y="623.494" width="109.592" height="109.592" stroke="white" stroke-width="1.1536"/>
<rect x="-11.2845" y="734.239" width="109.592" height="109.592" stroke="white" stroke-width="1.1536"/>
<rect x="98.3073" y="734.239" width="109.592" height="109.592" stroke="white" stroke-width="1.1536"/>
<rect x="207.899" y="734.239" width="109.592" height="109.592" stroke="white" stroke-width="1.1536"/>
<rect x="317.491" y="734.239" width="109.592" height="109.592" stroke="white" stroke-width="1.1536"/>
<rect x="427.085" y="734.239" width="109.592" height="109.592" stroke="white" stroke-width="1.1536"/>
<rect x="536.676" y="734.239" width="109.592" height="109.592" stroke="white" stroke-width="1.1536"/>
<rect x="646.268" y="734.239" width="109.592" height="109.592" stroke="white" stroke-width="1.1536"/>
<rect x="755.86" y="734.239" width="109.592" height="109.592" stroke="white" stroke-width="1.1536"/>
<rect x="864.877" y="733.662" width="110.746" height="110.746" fill="white" fill-opacity="0.13"/>
<rect x="975.046" y="734.239" width="109.592" height="109.592" stroke="white" stroke-width="1.1536"/>
<rect x="1084.06" y="733.662" width="110.746" height="110.746" fill="white" fill-opacity="0.13"/>
<rect x="1194.23" y="734.239" width="109.592" height="109.592" stroke="white" stroke-width="1.1536"/>
<rect x="1303.25" y="733.662" width="110.746" height="110.746" fill="white" fill-opacity="0.13"/>
<rect x="1413.41" y="734.239" width="109.592" height="109.592" stroke="white" stroke-width="1.1536"/>
<rect x="-11.2845" y="844.985" width="109.592" height="109.592" stroke="white" stroke-width="1.1536"/>
<rect x="98.3073" y="844.985" width="109.592" height="109.592" stroke="white" stroke-width="1.1536"/>
<rect x="207.899" y="844.985" width="109.592" height="109.592" stroke="white" stroke-width="1.1536"/>
<rect x="317.491" y="844.985" width="109.592" height="109.592" stroke="white" stroke-width="1.1536"/>
<rect x="427.085" y="844.985" width="109.592" height="109.592" stroke="white" stroke-width="1.1536"/>
<rect x="536.676" y="844.985" width="109.592" height="109.592" stroke="white" stroke-width="1.1536"/>
<rect x="646.268" y="844.985" width="109.592" height="109.592" stroke="white" stroke-width="1.1536"/>
<rect x="755.283" y="844.408" width="110.746" height="110.746" fill="white" fill-opacity="0.13"/>
<rect x="865.454" y="844.985" width="109.592" height="109.592" stroke="white" stroke-width="1.1536"/>
<rect x="974.469" y="844.408" width="110.746" height="110.746" fill="white" fill-opacity="0.13"/>
<rect x="1084.64" y="844.985" width="109.592" height="109.592" stroke="white" stroke-width="1.1536"/>
<rect x="1193.65" y="844.408" width="110.746" height="110.746" fill="white" fill-opacity="0.13"/>
<rect x="1303.82" y="844.985" width="109.592" height="109.592" stroke="white" stroke-width="1.1536"/>
<rect x="1413.41" y="844.985" width="109.592" height="109.592" stroke="white" stroke-width="1.1536"/>
<rect x="-11.2845" y="955.731" width="109.592" height="109.592" stroke="white" stroke-width="1.1536"/>
<rect x="98.3073" y="955.731" width="109.592" height="109.592" stroke="white" stroke-width="1.1536"/>
<rect x="207.899" y="955.731" width="109.592" height="109.592" stroke="white" stroke-width="1.1536"/>
<rect x="317.491" y="955.731" width="109.592" height="109.592" stroke="white" stroke-width="1.1536"/>
<rect x="427.085" y="955.731" width="109.592" height="109.592" stroke="white" stroke-width="1.1536"/>
<rect x="536.676" y="955.731" width="109.592" height="109.592" stroke="white" stroke-width="1.1536"/>
<rect x="646.268" y="955.731" width="109.592" height="109.592" stroke="white" stroke-width="1.1536"/>
<rect x="755.86" y="955.731" width="109.592" height="109.592" stroke="white" stroke-width="1.1536"/>
<rect x="864.877" y="955.154" width="110.746" height="110.746" fill="white" fill-opacity="0.13"/>
<rect x="975.046" y="955.731" width="109.592" height="109.592" stroke="white" stroke-width="1.1536"/>
<rect x="1084.06" y="955.154" width="110.746" height="110.746" fill="white" fill-opacity="0.13"/>
<rect x="1194.23" y="955.731" width="109.592" height="109.592" stroke="white" stroke-width="1.1536"/>
<rect x="1303.82" y="955.731" width="109.592" height="109.592" stroke="white" stroke-width="1.1536"/>
<rect x="1413.41" y="955.731" width="109.592" height="109.592" stroke="white" stroke-width="1.1536"/>
</g>
</mask>
<g mask="url(#mask0_734_10624)">
<g filter="url(#filter2_f_734_10624)">
<ellipse cx="753.857" cy="456.737" rx="378.317" ry="366.617" transform="rotate(34.13 753.857 456.737)" fill="#D9D9D9"/>
</g>
<g filter="url(#filter3_f_734_10624)">
<ellipse cx="1209.79" cy="824.677" rx="210.653" ry="174.488" transform="rotate(30.1452 1209.79 824.677)" fill="#D9D9D9"/>
</g>
<g filter="url(#filter4_f_734_10624)">
<ellipse cx="182.098" cy="136.691" rx="264.251" ry="180.382" transform="rotate(30.1452 182.098 136.691)" fill="#D9D9D9"/>
</g>
<g filter="url(#filter5_f_734_10624)">
<ellipse cx="1297.93" cy="96.4569" rx="231.636" ry="205.508" transform="rotate(-15 1297.93 96.4569)" fill="#D9D9D9"/>
</g>
<g filter="url(#filter6_f_734_10624)">
<ellipse cx="137.657" cy="736.244" rx="260.773" ry="192.701" transform="rotate(-37.1362 137.657 736.244)" fill="#D9D9D9"/>
</g>
</g>
</g>
</g>
<defs>
<filter id="filter0_fn_734_10624" x="-678" y="4" width="1856" height="1856" filterUnits="userSpaceOnUse" color-interpolation-filters="sRGB">
<feFlood flood-opacity="0" result="BackgroundImageFix"/>
<feBlend mode="normal" in="SourceGraphic" in2="BackgroundImageFix" result="shape"/>
<feGaussianBlur stdDeviation="300" result="effect1_foregroundBlur_734_10624"/>
<feTurbulence type="fractalNoise" baseFrequency="2.4207315444946289 2.4207315444946289" stitchTiles="stitch" numOctaves="3" result="noise" seed="9558" />
<feColorMatrix in="noise" type="luminanceToAlpha" result="alphaNoise" />
<feComponentTransfer in="alphaNoise" result="coloredNoise1">
<feFuncA type="discrete" tableValues="0 0 0 0 0 0 0 0 0 0 0 0 0 0 1 1 1 1 1 1 1 1 1 1 1 1 1 1 1 1 1 1 1 1 1 0 0 0 0 0 0 0 0 0 0 0 0 0 0 0 0 0 0 0 0 0 0 0 0 0 0 0 0 0 0 0 0 0 0 0 0 0 0 0 0 0 0 0 0 0 0 0 0 0 0 0 0 0 0 0 0 0 0 0 0 0 0 0 0 0 "/>
</feComponentTransfer>
<feComposite operator="in" in2="effect1_foregroundBlur_734_10624" in="coloredNoise1" result="noise1Clipped" />
<feFlood flood-color="#1BB15F" result="color1Flood" />
<feComposite operator="in" in2="noise1Clipped" in="color1Flood" result="color1" />
<feMerge result="effect2_noise_734_10624">
<feMergeNode in="effect1_foregroundBlur_734_10624" />
<feMergeNode in="color1" />
</feMerge>
</filter>
<filter id="filter1_fn_734_10624" x="255" y="-1098" width="2256" height="2256" filterUnits="userSpaceOnUse" color-interpolation-filters="sRGB">
<feFlood flood-opacity="0" result="BackgroundImageFix"/>
<feBlend mode="normal" in="SourceGraphic" in2="BackgroundImageFix" result="shape"/>
<feGaussianBlur stdDeviation="400" result="effect1_foregroundBlur_734_10624"/>
<feTurbulence type="fractalNoise" baseFrequency="2.4207315444946289 2.4207315444946289" stitchTiles="stitch" numOctaves="3" result="noise" seed="9558" />
<feColorMatrix in="noise" type="luminanceToAlpha" result="alphaNoise" />
<feComponentTransfer in="alphaNoise" result="coloredNoise1">
<feFuncA type="discrete" tableValues="0 0 0 0 0 0 0 0 0 0 0 0 0 0 1 1 1 1 1 1 1 1 1 1 1 1 1 1 1 1 1 1 1 1 1 0 0 0 0 0 0 0 0 0 0 0 0 0 0 0 0 0 0 0 0 0 0 0 0 0 0 0 0 0 0 0 0 0 0 0 0 0 0 0 0 0 0 0 0 0 0 0 0 0 0 0 0 0 0 0 0 0 0 0 0 0 0 0 0 0 "/>
</feComponentTransfer>
<feComposite operator="in" in2="effect1_foregroundBlur_734_10624" in="coloredNoise1" result="noise1Clipped" />
<feFlood flood-color="#F8F36A" result="color1Flood" />
<feComposite operator="in" in2="noise1Clipped" in="color1Flood" result="color1" />
<feMerge result="effect2_noise_734_10624">
<feMergeNode in="effect1_foregroundBlur_734_10624" />
<feMergeNode in="color1" />
</feMerge>
</filter>
<filter id="filter2_f_734_10624" x="323.132" y="30.3534" width="861.451" height="852.767" filterUnits="userSpaceOnUse" color-interpolation-filters="sRGB">
<feFlood flood-opacity="0" result="BackgroundImageFix"/>
<feBlend mode="normal" in="SourceGraphic" in2="BackgroundImageFix" result="shape"/>
<feGaussianBlur stdDeviation="28.0054" result="effect1_foregroundBlur_734_10624"/>
</filter>
<filter id="filter3_f_734_10624" x="951.591" y="584.372" width="516.401" height="480.611" filterUnits="userSpaceOnUse" color-interpolation-filters="sRGB">
<feFlood flood-opacity="0" result="BackgroundImageFix"/>
<feBlend mode="normal" in="SourceGraphic" in2="BackgroundImageFix" result="shape"/>
<feGaussianBlur stdDeviation="28.0054" result="effect1_foregroundBlur_734_10624"/>
</filter>
<filter id="filter4_f_734_10624" x="-119.792" y="-124.122" width="603.78" height="521.627" filterUnits="userSpaceOnUse" color-interpolation-filters="sRGB">
<feFlood flood-opacity="0" result="BackgroundImageFix"/>
<feBlend mode="normal" in="SourceGraphic" in2="BackgroundImageFix" result="shape"/>
<feGaussianBlur stdDeviation="28.0054" result="effect1_foregroundBlur_734_10624"/>
</filter>
<filter id="filter5_f_734_10624" x="911.188" y="-267.673" width="773.489" height="728.26" filterUnits="userSpaceOnUse" color-interpolation-filters="sRGB">
<feFlood flood-opacity="0" result="BackgroundImageFix"/>
<feBlend mode="normal" in="SourceGraphic" in2="BackgroundImageFix" result="shape"/>
<feGaussianBlur stdDeviation="78.357" result="effect1_foregroundBlur_734_10624"/>
</filter>
<filter id="filter6_f_734_10624" x="-257.327" y="359.565" width="789.967" height="753.358" filterUnits="userSpaceOnUse" color-interpolation-filters="sRGB">
<feFlood flood-opacity="0" result="BackgroundImageFix"/>
<feBlend mode="normal" in="SourceGraphic" in2="BackgroundImageFix" result="shape"/>
<feGaussianBlur stdDeviation="78.357" result="effect1_foregroundBlur_734_10624"/>
</filter>
<clipPath id="clip0_734_10624">
<rect width="1440" height="1024" fill="white"/>
</clipPath>
</defs>
</svg>
