  <svg
                      xmlns="http://www.w3.org/2000/svg"
                      width="18"
                      height="16"
                      viewBox="0 0 18 16"
                      fill="none"
                    >
                      <path
                        fill-rule="evenodd"
                        clip-rule="evenodd"
                        d="M7.69861 1.17448C7.2636 0.280787 6.21881 0.112533 5.46745 0.467425L1.88481 2.15962C1.87241 2.16547 1.8602 2.17174 1.84821 2.1784C0.55152 2.89878 0.55036 4.76323 1.84615 5.48523C1.85834 5.49202 1.87076 5.4984 1.88337 5.50436L5.47073 7.19921C6.21934 7.55289 7.26204 7.388 7.69836 6.49686C8.0107 5.85896 8.2014 5.16459 8.27142 4.45754H15.2502C15.5953 4.45754 15.8752 4.17772 15.8752 3.83254C15.8752 3.48736 15.5953 3.20754 15.2502 3.20754H8.27009C8.19885 2.50238 8.00804 1.8102 7.69861 1.17448ZM6.36986 1.55789C6.46763 1.58481 6.53508 1.64021 6.57468 1.72156C7.2094 3.02555 7.21223 4.64718 6.57571 5.94718C6.53631 6.02764 6.46939 6.08247 6.37207 6.10908C6.26827 6.13745 6.1341 6.13014 6.00469 6.069L2.43932 4.38454C2.01983 4.13645 2.0203 3.52709 2.44027 3.27968L6.00131 1.59769C6.13107 1.5364 6.26565 1.5292 6.36986 1.55789Z"
                        fill="#090909"
                      />
                      <path
                        fill-rule="evenodd"
                        clip-rule="evenodd"
                        d="M12.5296 8.80076C11.7782 8.44587 10.7335 8.61412 10.2984 9.50782C9.989 10.1435 9.79819 10.8357 9.72695 11.5409L2.75008 11.5417C2.40491 11.5417 2.12511 11.8216 2.12515 12.1668C2.12519 12.5119 2.40504 12.7917 2.75022 12.7917L9.72563 12.7909C9.79566 13.498 9.98636 14.1923 10.2987 14.8302C10.735 15.7213 11.7777 15.8862 12.5263 15.5325L16.1137 13.8377C16.1263 13.8317 16.1387 13.8254 16.1509 13.8186C17.4467 13.0966 17.4455 11.2321 16.1488 10.5117C16.1368 10.5051 16.1246 10.4988 16.1122 10.4929L12.5296 8.80076ZM11.4224 10.0549C11.462 9.97355 11.5294 9.91815 11.6272 9.89123C11.7314 9.86254 11.866 9.86973 11.9957 9.93102L15.5568 11.613C15.9767 11.8604 15.9772 12.4698 15.5577 12.7179L11.9924 14.4023C11.8629 14.4635 11.7288 14.4708 11.625 14.4424C11.5277 14.4158 11.4607 14.361 11.4213 14.2805C10.7848 12.9805 10.7877 11.3589 11.4224 10.0549Z"
                        fill="#090909"
                      />
                    </svg>