<svg width="55" height="34" viewBox="0 0 55 34" fill="none" xmlns="http://www.w3.org/2000/svg">
<path d="M38.3438 0.75C47.5428 0.75 55.0008 8.11847 55.001 17.208C55.001 26.2977 47.5429 33.667 38.3438 33.667C34.2203 33.6669 30.4478 32.1849 27.5391 29.7324C24.6303 32.1848 20.8578 33.667 16.7344 33.667C7.53536 33.6668 0.078125 26.2976 0.078125 17.208C0.0783013 8.11857 7.53546 0.750156 16.7344 0.75C20.8574 0.75 24.6304 2.23068 27.5391 4.68262C30.4477 2.23057 34.2207 0.75007 38.3438 0.75Z" fill="#ED0006"/>
<path d="M38.3438 0.75C47.5428 0.75 55.0008 8.11847 55.001 17.208C55.001 26.2977 47.5429 33.667 38.3438 33.667C34.2205 33.6669 30.4477 32.1856 27.5391 29.7334C31.12 26.7146 33.3916 22.2236 33.3916 17.208C33.3915 12.1924 31.1201 7.70131 27.5391 4.68262C30.4477 2.23057 34.2207 0.750071 38.3438 0.75Z" fill="#F9A000"/>
<path d="M27.5391 4.68359C31.1198 7.70228 33.3915 12.1926 33.3916 17.208C33.3916 22.2234 31.1197 26.7137 27.5391 29.7324C23.9586 26.7137 21.6875 22.2233 21.6875 17.208C21.6875 12.1928 23.9586 7.70232 27.5391 4.68359Z" fill="#FF5E00"/>
</svg>
