<svg width="12" height="12" viewBox="0 0 12 12" fill="none" xmlns="http://www.w3.org/2000/svg">
<path d="M6.61344 5.84899C6.67025 5.87662 6.72108 5.90498 6.76453 5.93213C6.94015 6.0419 6.99354 6.27326 6.88378 6.44888C6.77401 6.62451 6.54265 6.6779 6.36703 6.56813C6.27898 6.5131 6.12108 6.44355 5.96132 6.42427C5.80675 6.40561 5.69706 6.43688 5.61863 6.5153C5.55608 6.57785 5.53427 6.63338 5.52644 6.67937C5.5178 6.73019 5.52333 6.78938 5.54413 6.85396C5.5652 6.91937 5.64088 7.00019 5.83396 7.09692C5.84112 7.09996 5.84823 7.10324 5.85528 7.10677L6.28726 7.32276C6.50751 7.43288 6.83592 7.6319 6.95682 8.0072C7.05631 8.316 7.05853 8.74642 6.69878 9.10616C6.45615 9.34879 6.16094 9.4231 5.89888 9.42179L5.88827 9.47484C5.84765 9.67793 5.65009 9.80964 5.44701 9.76902C5.24392 9.7284 5.11222 9.53084 5.15284 9.32776L5.17029 9.2405C5.11483 9.21339 5.06514 9.18561 5.02256 9.159C4.84693 9.04923 4.79354 8.81787 4.90331 8.64225C5.01307 8.46662 5.24443 8.41323 5.42006 8.523C5.50811 8.57803 5.66601 8.64758 5.82577 8.66686C5.98033 8.68552 6.09003 8.65425 6.16845 8.57583C6.23101 8.51328 6.25282 8.45775 6.26064 8.41177C6.26929 8.36094 6.26376 8.30175 6.24295 8.23717C6.22188 8.17177 6.1462 8.09094 5.95312 7.99421C5.94596 7.99117 5.93885 7.98789 5.9318 7.98436L5.49982 7.76837C5.27958 7.65825 4.95116 7.45923 4.83026 7.08394C4.73078 6.77513 4.72856 6.34472 5.0883 5.98497C5.3298 5.74348 5.62338 5.66873 5.88452 5.66932L5.89887 5.59758C5.93948 5.3945 6.13704 5.26279 6.34013 5.30341C6.54321 5.34402 6.67492 5.54158 6.6343 5.74467L6.61344 5.84899Z" fill="#1BB15F"/>
<path fill-rule="evenodd" clip-rule="evenodd" d="M8.36094 1.06226C8.5725 1.37818 8.61504 1.81228 8.42132 2.19971L7.93554 3.17128C8.10892 3.20429 8.23999 3.35666 8.23999 3.53965C8.23999 3.74529 8.07448 3.91226 7.86941 3.91463C8.64654 4.45406 9.13163 4.97493 9.40228 5.54325C9.78992 6.35721 9.70024 7.19788 9.56807 8.12223C9.54361 8.2933 9.55883 8.41364 9.5888 8.50927C9.61996 8.60871 9.67336 8.70206 9.7546 8.81599C9.78308 8.85593 9.81643 8.89957 9.85287 8.94725C10.0102 9.15312 10.2249 9.43408 10.3521 9.81572C10.6347 10.6641 9.94176 11.375 9.1969 11.375H2.80272C2.05786 11.375 1.36493 10.6641 1.64756 9.81572C1.7747 9.43408 1.98942 9.15312 2.14675 8.94725C2.18319 8.89957 2.21654 8.85593 2.24502 8.81599C2.32626 8.70206 2.37966 8.60871 2.41082 8.50927C2.44079 8.41364 2.45601 8.2933 2.43155 8.12223C2.29938 7.19788 2.2097 6.35721 2.59734 5.54325C2.86799 4.97493 3.35308 4.45406 4.13021 3.91463C3.92523 3.91216 3.75981 3.74523 3.75981 3.53965C3.75981 3.35005 3.90053 3.19331 4.08323 3.16817L3.68346 2.302C3.21828 1.29411 4.28201 0.263113 5.27487 0.759547L6.15756 1.20089C6.46827 0.964269 6.83804 0.780658 7.28622 0.661038C7.74211 0.539358 8.14278 0.73647 8.36094 1.06226ZM5.46093 3.16463H4.90762L4.36443 1.98771C4.19635 1.62352 4.5807 1.25099 4.93946 1.43037L5.59568 1.75848C5.53422 1.83666 5.4763 1.9171 5.42143 1.99941C5.30655 2.17173 5.35312 2.40456 5.52544 2.51944C5.69776 2.63432 5.93059 2.58776 6.04547 2.41544C6.16929 2.22971 6.30549 2.06536 6.46166 1.92296C6.71819 1.68904 7.04132 1.50266 7.47962 1.38567C7.59783 1.35412 7.68153 1.3956 7.73777 1.47958C7.80061 1.57342 7.82252 1.72026 7.7505 1.8643L7.10034 3.16463H6.53869C6.53474 3.16457 6.5308 3.16457 6.52685 3.16463H5.47277C5.46882 3.16457 5.46488 3.16457 5.46093 3.16463ZM5.56336 3.91465C4.17364 4.68281 3.54931 5.28862 3.27447 5.86573C2.99594 6.45059 3.03949 7.07534 3.17399 8.01608C3.21278 8.28734 3.19298 8.5214 3.12652 8.73352C3.06125 8.94182 2.95682 9.10958 2.85567 9.25142C2.8057 9.3215 2.75791 9.38465 2.71261 9.44451C2.56458 9.64012 2.44311 9.80064 2.35911 10.0528C2.2651 10.335 2.4817 10.625 2.80272 10.625H9.1969C9.51792 10.625 9.73452 10.335 9.64051 10.0528C9.55651 9.80064 9.4351 9.6402 9.28707 9.44459C9.24175 9.38471 9.19394 9.32153 9.14395 9.25142C9.0428 9.10958 8.93837 8.94182 8.87311 8.73352C8.80664 8.5214 8.78684 8.28734 8.82563 8.01608C8.96013 7.07534 9.00368 6.45059 8.72515 5.86573C8.45031 5.28862 7.82598 4.68281 6.43626 3.91465H5.56336Z" fill="#1BB15F"/>
</svg>
