<svg
                      xmlns="http://www.w3.org/2000/svg"
                      width="20"
                      height="20"
                      viewBox="0 0 20 20"
                      fill="none"
                    >
                      <path
                        d="M9.99966 7.49988C7.00813 7.49988 4.58301 9.925 4.58301 12.9165C4.58301 15.9081 7.00813 18.3332 9.99966 18.3332C12.9912 18.3332 15.4163 15.9081 15.4163 12.9165C15.4163 9.925 12.9912 7.49988 9.99966 7.49988Z"
                        stroke="#0C0C0C"
                        stroke-width="1.25"
                        stroke-linecap="round"
                        stroke-linejoin="round"
                      />
                      <path
                        d="M16.6663 1.66663L13.3528 4.67896C12.7558 5.22173 12.4572 5.49313 12.1055 5.47123C11.7539 5.44934 11.4913 5.14302 10.9663 4.53038L10.5441 4.03793C10.0866 3.50417 9.85784 3.23728 9.54476 3.19409C9.23159 3.15089 8.93917 3.34588 8.35417 3.73583L3.33301 7.08329M16.6663 1.66663H13.7497M16.6663 1.66663V4.16663"
                        stroke="#0C0C0C"
                        stroke-width="1.25"
                        stroke-linecap="round"
                        stroke-linejoin="round"
                      />
                      <path
                        d="M8.69822 15.1387V10.6943M10.0003 10.6943V9.58313M10.0003 16.2498V15.1387M8.69822 12.9165H11.3024M11.3024 12.9165C11.7339 12.9165 12.0836 13.2896 12.0836 13.7498V14.3054C12.0836 14.7656 11.7339 15.1387 11.3024 15.1387H7.91699M11.3024 12.9165C11.7339 12.9165 12.0836 12.5434 12.0836 12.0831V11.5276C12.0836 11.0674 11.7339 10.6943 11.3024 10.6943H7.91699"
                        stroke="#0C0C0C"
                        stroke-width="1.25"
                        stroke-linecap="round"
                        stroke-linejoin="round"
                      />
                    </svg>