<svg xmlns="http://www.w3.org/2000/svg" width="20" height="20" viewBox="0 0 20 20" fill="none">
  <path fill-rule="evenodd" clip-rule="evenodd" d="M10.0004 6.87482C8.27452 6.87482 6.87541 8.27393 6.87541 9.99982C6.87541 11.7257 8.27452 13.1248 10.0004 13.1248C11.7263 13.1248 13.1254 11.7257 13.1254 9.99982C13.1254 8.27393 11.7263 6.87482 10.0004 6.87482ZM8.12541 9.99982C8.12541 8.96429 8.96487 8.12482 10.0004 8.12482C11.0359 8.12482 11.8754 8.96429 11.8754 9.99982C11.8754 11.0354 11.0359 11.8748 10.0004 11.8748C8.96487 11.8748 8.12541 11.0354 8.12541 9.99982Z" fill="black"/>
  <path fill-rule="evenodd" clip-rule="evenodd" d="M9.43927 1.35815C8.67386 1.35815 7.82818 1.64867 7.43899 2.42508L6.76259 3.73239C6.65152 3.94706 6.42662 4.07844 6.18507 4.06977L4.76101 4.01866C3.85611 3.90865 3.1025 4.55135 2.72254 5.21963L2.71655 5.23041L2.23824 6.11172C1.83218 6.83021 1.79112 7.71572 2.16791 8.34686L2.95713 9.61596C3.0851 9.82174 3.08259 10.083 2.95068 10.2862L2.18188 11.471C1.68238 12.227 1.85856 13.1411 2.24147 13.8146L2.80549 14.7863C2.81511 14.8029 2.82549 14.819 2.83659 14.8347C3.31647 15.5099 4.04772 15.9839 4.78917 15.9839C4.79664 15.9839 4.80412 15.9838 4.81159 15.9835L6.26525 15.9314C6.5068 15.9227 6.73169 16.0541 6.84277 16.2687L7.52121 17.58C7.52702 17.5912 7.53318 17.6023 7.53966 17.6132C7.9095 18.2327 8.69229 18.643 9.51944 18.643H10.5617C11.3271 18.643 12.1728 18.3525 12.562 17.5761L13.2384 16.2687C13.3494 16.0541 13.5743 15.9227 13.8159 15.9314L15.24 15.9825C16.1449 16.0925 16.8985 15.4498 17.2784 14.7815L17.2844 14.7707L17.7627 13.8894C17.976 13.5119 18.0784 13.0912 18.0914 12.7005C18.1041 12.3155 18.0313 11.9058 17.8331 11.5737L17.0438 10.3046C16.9159 10.0988 16.9184 9.8376 17.0503 9.63432L17.819 8.44967C18.3186 7.69361 18.1424 6.77946 17.7595 6.10597C17.7546 6.09738 17.7495 6.08889 17.7442 6.08054L17.183 5.19419C17.177 5.18479 17.1708 5.17555 17.1644 5.16647C16.6845 4.49127 15.9533 4.0172 15.2118 4.0172C15.2043 4.0172 15.1969 4.01733 15.1894 4.0176L13.7357 4.06977C13.4942 4.07844 13.2693 3.94706 13.1582 3.73239L12.4798 2.42114C12.4739 2.4099 12.4678 2.39884 12.4613 2.38797C12.0915 1.76848 11.3087 1.35815 10.4815 1.35815H9.43927ZM8.55571 2.98674C8.64867 2.79988 8.92349 2.60815 9.43927 2.60815H10.4815C10.927 2.60815 11.2616 2.8321 11.3802 3.01618L12.048 4.3068C12.3812 4.95082 13.0559 5.34498 13.7806 5.31897L15.2206 5.26728C15.4406 5.27167 15.8205 5.44041 16.1364 5.87792L16.6796 6.73587C16.9305 7.18418 16.9137 7.55305 16.7755 7.7615L16.0017 8.95389C15.606 9.56373 15.5984 10.3474 15.9823 10.9647L16.7617 12.218C16.8035 12.2903 16.8492 12.4432 16.842 12.659C16.835 12.8706 16.7781 13.0922 16.6728 13.2773L16.6668 13.2881L16.189 14.1686C15.9329 14.6156 15.5812 14.7691 15.3808 14.7403C15.3588 14.7371 15.3366 14.7351 15.3144 14.7343L13.8607 14.6822C13.1361 14.6562 12.4614 15.0503 12.1282 15.6943L11.4497 17.0055L11.4453 17.0144C11.3523 17.2013 11.0775 17.393 10.5617 17.393H9.51944C9.07397 17.393 8.73937 17.169 8.62073 16.9849L7.95297 15.6943C7.61975 15.0503 6.94506 14.6562 6.22041 14.6822L4.78041 14.7338C4.56194 14.7295 4.18574 14.5631 3.8712 14.1323L3.32685 13.1945C3.07019 12.7418 3.08622 12.369 3.2255 12.1591L3.99925 10.9667C4.39498 10.3568 4.40253 9.57319 4.01862 8.95585L3.23911 7.70237C3.13745 7.52746 3.09747 7.1295 3.32813 6.7238L3.33413 6.71302L3.81201 5.8325C4.06806 5.38557 4.41972 5.23207 4.62017 5.26085C4.64218 5.26401 4.66435 5.266 4.68657 5.26679L6.14023 5.31897C6.86489 5.34498 7.53958 4.95082 7.87279 4.3068L8.5513 2.99559L8.55571 2.98674Z" fill="black"/>
</svg>