<svg
                      xmlns="http://www.w3.org/2000/svg"
                      width="20"
                      height="20"
                      viewBox="0 0 20 20"
                      fill="none"
                    >
                      <path
                        fill-rule="evenodd"
                        clip-rule="evenodd"
                        d="M5.41634 1.45825C3.23021 1.45825 1.45801 3.23046 1.45801 5.41658C1.45801 7.60271 3.23021 9.37492 5.41634 9.37492C7.60247 9.37492 9.37467 7.60271 9.37467 5.41658C9.37467 3.23046 7.60247 1.45825 5.41634 1.45825ZM2.70801 5.41658C2.70801 3.92081 3.92057 2.70825 5.41634 2.70825C6.91211 2.70825 8.12467 3.92081 8.12467 5.41658C8.12467 6.91236 6.91211 8.12492 5.41634 8.12492C3.92057 8.12492 2.70801 6.91236 2.70801 5.41658Z"
                        fill="black"
                      />
                      <path
                        fill-rule="evenodd"
                        clip-rule="evenodd"
                        d="M5.41634 10.6249C3.23021 10.6249 1.45801 12.3971 1.45801 14.5833C1.45801 16.7694 3.23021 18.5416 5.41634 18.5416C7.60247 18.5416 9.37467 16.7694 9.37467 14.5833C9.37467 12.3971 7.60247 10.6249 5.41634 10.6249ZM2.70801 14.5833C2.70801 13.0875 3.92057 11.8749 5.41634 11.8749C6.91211 11.8749 8.12467 13.0875 8.12467 14.5833C8.12467 16.079 6.91211 17.2916 5.41634 17.2916C3.92057 17.2916 2.70801 16.079 2.70801 14.5833Z"
                        fill="black"
                      />
                      <path
                        fill-rule="evenodd"
                        clip-rule="evenodd"
                        d="M10.6247 5.41658C10.6247 3.23046 12.3969 1.45825 14.583 1.45825C16.7691 1.45825 18.5413 3.23046 18.5413 5.41658C18.5413 7.60271 16.7691 9.37492 14.583 9.37492C12.3969 9.37492 10.6247 7.60271 10.6247 5.41658ZM14.583 2.70825C13.0872 2.70825 11.8747 3.92081 11.8747 5.41658C11.8747 6.91236 13.0872 8.12492 14.583 8.12492C16.0788 8.12492 17.2913 6.91236 17.2913 5.41658C17.2913 3.92081 16.0788 2.70825 14.583 2.70825Z"
                        fill="black"
                      />
                      <path
                        fill-rule="evenodd"
                        clip-rule="evenodd"
                        d="M14.583 10.6249C12.3969 10.6249 10.6247 12.3971 10.6247 14.5833C10.6247 16.7694 12.3969 18.5416 14.583 18.5416C16.7691 18.5416 18.5413 16.7694 14.583 18.5416C14.583 12.3971 16.7691 10.6249 14.583 10.6249ZM11.8747 14.5833C11.8747 13.0875 13.0872 11.8749 14.583 11.8749C16.0788 11.8749 17.2913 13.0875 17.2913 14.5833C17.2913 16.079 16.0788 17.2916 14.583 17.2916C13.0872 17.2916 11.8747 16.079 11.8747 14.5833Z"
                        fill="black"
                      />
                    </svg>