<svg width="100" height="40" viewBox="0 0 100 40" fill="none" xmlns="http://www.w3.org/2000/svg">
<path d="M64.624 9.78809C68.5547 9.78809 72.2606 13.4323 72.2832 20.1211C72.2832 27.4328 68.6221 30.7549 64.6016 30.7549C62.6251 30.7548 61.4346 29.9014 60.626 29.3018L60.6035 35.8291L54.9883 37.0518V10.1572H59.9297L60.2217 11.5869C61.0078 10.8488 62.423 9.78813 64.624 9.78809ZM16.7148 9.78906C18.579 9.78906 20.421 10.0886 22.2852 10.8496V16.2705C20.5781 15.3249 18.4219 14.7939 16.7148 14.7939C15.5245 14.794 14.8057 15.1405 14.8057 16.04C14.8062 18.623 23.3633 17.4012 23.3857 24.2744C23.3856 28.4029 20.1738 30.7783 15.502 30.7783C13.5703 30.7783 11.459 30.3865 9.37012 29.4639V23.9746C11.2568 25.0356 13.6377 25.8193 15.502 25.8193C16.7598 25.8193 17.6582 25.4731 17.6582 24.4121C17.6574 21.6678 9.12305 22.6821 9.12305 16.3164C9.12313 12.234 12.1553 9.78911 16.7148 9.78906ZM29.9668 10.1807H34.2344V15.0938H29.9668V23.2822C29.9669 26.6955 33.5152 25.6349 34.2344 25.335V30.0176C33.4931 30.4327 32.1453 30.7783 30.3037 30.7783C26.9795 30.7783 24.4864 28.2642 24.4863 24.8506L24.5088 6.375L29.9893 5.17578L29.9668 10.1807ZM81.875 9.78906C87.1982 9.78906 89.9833 14.448 89.9834 20.3525C89.9834 20.9061 89.9385 22.1064 89.9385 22.4062H78.9551C79.2023 25.1276 81.1339 25.9121 83.3125 25.9121C85.536 25.9121 87.2881 25.4277 88.8154 24.6436V29.2559C87.2881 30.1323 85.2666 30.7559 82.5938 30.7559C77.1133 30.7558 73.2949 27.2493 73.2949 20.3066C73.295 14.4482 76.5294 9.78913 81.875 9.78906ZM41.2207 11.8877C42.5458 9.39683 45.1736 9.90387 45.8926 10.1807V15.4854C45.196 15.2316 42.95 14.9098 41.625 16.6855V30.3633H36.0098V10.1807H40.8613L41.2207 11.8877ZM52.8994 30.3633H47.2617V10.1807H52.8994V30.3633ZM63.2764 14.9082C61.9962 14.9082 61.1875 15.3693 60.6035 16.0381L60.626 24.5957C61.165 25.1954 61.9512 25.6797 63.2764 25.6797C65.3428 25.6797 66.7354 23.373 66.7354 20.2822C66.7353 17.2608 65.3203 14.9082 63.2764 14.9082ZM81.8516 14.4707C80.4365 14.4707 78.8867 15.5548 78.8867 18.1611H84.6816C84.6816 15.5548 83.2217 14.4707 81.8516 14.4707ZM52.8994 7.18164L47.2617 8.42773V3.72266L52.8994 2.5V7.18164Z" fill="#6461FC"/>
</svg>
