<svg width="100" height="40" viewBox="0 0 100 40" fill="none" xmlns="http://www.w3.org/2000/svg">
<path fill-rule="evenodd" clip-rule="evenodd" d="M29.7875 32.3352H22.8621L17.6689 11.9402C17.4224 11.002 16.8991 10.1726 16.1292 9.78174C14.2079 8.79939 12.0908 8.01758 9.78125 7.62328V6.83807H20.9375C22.4772 6.83807 23.632 8.01758 23.8244 9.38744L26.5189 24.099L33.4409 6.83807H40.1738L29.7875 32.3352ZM44.023 32.3352H37.4826L42.8682 6.83807H49.4086L44.023 32.3352ZM57.8704 13.9015C58.0629 12.5282 59.2177 11.743 60.5649 11.743C62.682 11.5459 64.9882 11.9402 66.9129 12.9191L68.0677 7.42951C66.143 6.6443 64.0259 6.25 62.1046 6.25C55.7567 6.25 51.1375 9.78173 51.1375 14.6833C51.1375 18.4122 54.4094 20.3701 56.719 21.5496C59.2177 22.7257 60.18 23.5109 59.9875 24.687C59.9875 26.4512 58.0629 27.2364 56.1416 27.2364C53.832 27.2364 51.5225 26.6484 49.4087 25.666L48.2539 31.159C50.5635 32.138 53.0622 32.5323 55.3717 32.5323C62.4896 32.726 66.9129 29.1977 66.9129 23.9018C66.9129 17.2327 57.8704 16.8418 57.8704 13.9015ZM89.803 32.335L84.6098 6.83789H79.0317C77.8769 6.83789 76.7221 7.6231 76.3372 8.7992L66.7207 32.335H73.4536L74.7975 28.6095H83.0701L83.8399 32.335H89.803ZM79.9937 13.7041L81.9149 23.3135H76.5293L79.9937 13.7041Z" fill="#172B85"/>
</svg>
