<svg width="12" height="12" viewBox="0 0 12 12" fill="none" xmlns="http://www.w3.org/2000/svg">
<g clip-path="url(#clip0_566_2341)">
<path fill-rule="evenodd" clip-rule="evenodd" d="M7.125 7.18512C7.125 6.42573 7.74061 5.81012 8.5 5.81012C9.25939 5.81012 9.875 6.42573 9.875 7.18512C9.875 7.94451 9.25939 8.56012 8.5 8.56012C7.74061 8.56012 7.125 7.94451 7.125 7.18512ZM8.5 6.56012C8.15482 6.56012 7.875 6.83994 7.875 7.18512C7.875 7.5303 8.15482 7.81012 8.5 7.81012C8.84518 7.81012 9.125 7.5303 9.125 7.18512C9.125 6.83994 8.84518 6.56012 8.5 6.56012Z" fill="#FC5452"/>
<path fill-rule="evenodd" clip-rule="evenodd" d="M0.634087 2.50006H0.625V9.23444C0.625 10.3701 1.59956 11.2501 2.75 11.2501H9.25C10.4004 11.2501 11.375 10.3701 11.375 9.23444V5.14069C11.375 4.00506 10.4004 3.12506 9.25 3.12506H8.875V2.61848C8.875 1.4845 7.87623 0.610052 6.75219 0.759923L1.68842 1.43509C1.1298 1.50958 0.70095 1.95297 0.634087 2.50006ZM6.85132 1.50334C7.52574 1.41342 8.125 1.93809 8.125 2.61848V3.12506H3.125C3.12363 3.12506 3.12227 3.12507 3.1209 3.12508H1.85037C1.58783 3.12508 1.375 2.91225 1.375 2.64971C1.375 2.41146 1.55138 2.21 1.78754 2.17851L6.85132 1.50334ZM9.25 3.87506C10.0326 3.87506 10.625 4.46413 10.625 5.14069V9.23444C10.625 9.91099 10.0326 10.5001 9.25 10.5001H2.75C1.96744 10.5001 1.375 9.91099 1.375 9.23444V3.77946C1.52117 3.84104 1.6818 3.87508 1.85037 3.87508L9.25 3.87506Z" fill="#FC5452"/>
</g>
<defs>
<clipPath id="clip0_566_2341">
<rect width="12" height="12" fill="white"/>
</clipPath>
</defs>
</svg>
